<svg width="100" height="96" viewBox="0 0 100 96" fill="none" xmlns="http://www.w3.org/2000/svg">
<path d="M76.6664 23.1176C86.5205 26.379 97.5086 32.9031 99.6103 41.3219C101.715 49.7158 94.9377 60.0335 87.8692 68.8557C80.7772 77.6612 73.394 85.0058 63.6869 89.8653C53.9799 94.747 41.9506 97.1878 29.1932 95.4317C16.4417 93.6977 2.94155 87.7668 0.441251 78.436C-2.02816 69.083 6.51697 56.3092 9.97914 43.534C13.4413 30.7589 11.7941 17.9851 17.53 14.0113C23.2381 10.0694 36.3146 14.9511 47.2115 17.3919C58.1083 19.8327 66.8153 19.8549 76.6664 23.1176Z" fill="#F8F8F8"/>
<path d="M83.255 24.6559L73.6759 86.917H50.279L40.7 24.6559" fill="#DEDEDE"/>
<path d="M59.9203 79.3757C59.9365 79.5365 59.9453 79.7001 59.9453 79.865V81.9746C59.9399 83.3177 59.3713 84.6043 58.3635 85.554C57.3558 86.5038 55.9905 87.0396 54.5653 87.0447H10.7365C9.30956 87.041 7.9421 86.5053 6.93292 85.5545C5.92375 84.6037 5.35488 83.3152 5.35061 81.9704V79.865C5.35003 79.7016 5.35838 79.5383 5.37562 79.3757" fill="#FF9C5A"/>
<path d="M58.2186 74.53H7.07579C6.12218 74.53 5.34912 75.2586 5.34912 76.1572V78.7478C5.34912 79.6464 6.12218 80.375 7.07579 80.375H58.2186C59.1722 80.375 59.9452 79.6464 59.9452 78.7478V76.1572C59.9452 75.2586 59.1722 74.53 58.2186 74.53Z" fill="#893112"/>
<path d="M4.91235 68.3538V72.2513C4.91235 73.1661 5.66832 73.9145 6.59049 73.9145H58.704C59.6262 73.9145 60.3807 73.1661 60.3807 72.2513V68.3538H4.91235Z" fill="#893112"/>
<path d="M59.7821 56.6736C59.7821 48.7884 47.6336 42.3973 32.6465 42.3973C17.6595 42.3973 5.51099 48.7898 5.51099 56.6736V60.33C5.51254 60.7935 5.70859 61.2375 6.05634 61.5652C6.40409 61.893 6.8753 62.0777 7.36709 62.0792H57.926C58.4179 62.0781 58.8893 61.8934 59.2372 61.5656C59.585 61.2378 59.7809 60.7936 59.7821 60.33V56.6736Z" fill="#FF9C5A"/>
<path d="M6.78741 65.0065C3.65469 65.0065 2.28394 66.5547 2.28394 67.9602C2.28394 69.9533 3.6488 70.7517 5.51079 70.7517C8.04491 70.7517 8.89354 69.0468 11.185 69.0468C14.153 69.0468 14.553 70.7212 17.1828 70.7212C19.8875 70.7212 22.5113 68.6172 24.6675 68.6172C27.6766 68.6172 29.8343 70.8709 32.842 70.8709C35.8497 70.8709 37.8558 68.8112 40.865 68.8112C43.0211 68.8112 44.3242 70.8709 47.0304 70.8709C49.6601 70.8709 50.5014 69.069 53.4679 69.069C55.7594 69.069 57.2493 70.6311 59.7819 70.6311C61.6454 70.6311 62.9543 69.9519 62.9543 67.9588C62.9543 66.5533 61.5851 65.0051 58.4523 65.0051" fill="#97E786"/>
<path d="M54.111 75.2301H58.2776C58.4301 75.2301 58.5764 75.173 58.6843 75.0714C58.7921 74.9698 58.8527 74.8319 58.8527 74.6882V74.4567C58.8527 74.313 58.7921 74.1752 58.6843 74.0735C58.5764 73.9719 58.4301 73.9148 58.2776 73.9148H7.01721C6.94169 73.9148 6.86691 73.9288 6.79714 73.956C6.72737 73.9833 6.66397 74.0232 6.61057 74.0735C6.55717 74.1238 6.51481 74.1836 6.48591 74.2493C6.45701 74.3151 6.44214 74.3856 6.44214 74.4567V74.6882C6.44214 74.8319 6.50273 74.9698 6.61057 75.0714C6.71842 75.173 6.86469 75.2301 7.01721 75.2301H17.1081C19.5437 75.2301 19.9128 77.4478 19.9128 78.2129V86.1216C19.9105 86.3078 19.9866 86.4872 20.1245 86.6205C20.2623 86.7538 20.4507 86.8301 20.6482 86.8327V86.8327C20.8457 86.8301 21.0341 86.7538 21.172 86.6205C21.3098 86.4872 21.3859 86.3078 21.3836 86.1216V78.2129C21.3836 74.9238 23.2691 74.9238 23.2691 78.2129V79.6904C23.2677 79.7827 23.2857 79.8743 23.3219 79.9601C23.3581 80.0458 23.4119 80.124 23.4802 80.1902C23.5485 80.2563 23.6299 80.3092 23.7199 80.3456C23.8099 80.3821 23.9066 80.4016 24.0045 80.4028V80.4028C24.1024 80.4016 24.1991 80.3821 24.2891 80.3456C24.379 80.3092 24.4605 80.2563 24.5288 80.1902C24.5971 80.124 24.6508 80.0458 24.6871 79.9601C24.7233 79.8743 24.7412 79.7827 24.7399 79.6904V78.2129C24.7399 77.4409 25.1105 75.2301 27.5446 75.2301H45.2879C47.722 75.2301 48.0911 77.4478 48.0911 78.2129V82.5928C48.0856 83.0008 48.2515 83.3943 48.5527 83.6874C48.8538 83.9806 49.2658 84.1496 49.6987 84.1576V84.1576C50.1316 84.1496 50.5435 83.9806 50.8447 83.6874C51.1458 83.3943 51.3117 83.0008 51.3062 82.5928V78.2129C51.3062 77.4409 51.6754 75.2301 54.111 75.2301Z" fill="#FED385"/>
<path d="M57.5894 62.0791H7.70562C7.22881 62.0791 6.84229 62.4434 6.84229 62.8927V65.7437C6.84229 66.1931 7.22881 66.5573 7.70562 66.5573H57.5894C58.0662 66.5573 58.4528 66.1931 58.4528 65.7437V62.8927C58.4528 62.4434 58.0662 62.0791 57.5894 62.0791Z" fill="#FCC486"/>
<path d="M83.6702 22.1334H40.2843C39.6296 22.1334 39.0989 22.6336 39.0989 23.2506C39.0989 23.8675 39.6296 24.3677 40.2843 24.3677H83.6702C84.3249 24.3677 84.8557 23.8675 84.8557 23.2506C84.8557 22.6336 84.3249 22.1334 83.6702 22.1334Z" fill="#DEDEDE"/>
<path d="M63.4781 9.16821H61.5632V22.1332H63.4781V9.16821Z" fill="#DEDEDE"/>
<path d="M53.7506 6.04143e-05L52.3965 1.27612L62.1246 10.4438L63.4787 9.16772L53.7506 6.04143e-05Z" fill="#DEDEDE"/>
<path d="M13.4886 56.7209C13.7623 56.7209 13.9842 56.5117 13.9842 56.2537C13.9842 55.9958 13.7623 55.7866 13.4886 55.7866C13.2148 55.7866 12.9929 55.9958 12.9929 56.2537C12.9929 56.5117 13.2148 56.7209 13.4886 56.7209Z" fill="#FCC486"/>
<path d="M20.3289 52.9492C20.6026 52.9492 20.8245 52.7401 20.8245 52.4821C20.8245 52.2242 20.6026 52.015 20.3289 52.015C20.0552 52.015 19.8333 52.2242 19.8333 52.4821C19.8333 52.7401 20.0552 52.9492 20.3289 52.9492Z" fill="#FCC486"/>
<path d="M40.4109 50.7455C40.6847 50.7455 40.9066 50.5363 40.9066 50.2784C40.9066 50.0204 40.6847 49.8113 40.4109 49.8113C40.1372 49.8113 39.9153 50.0204 39.9153 50.2784C39.9153 50.5363 40.1372 50.7455 40.4109 50.7455Z" fill="#FCC486"/>
<path d="M20.3289 47.6158C20.6026 47.6158 20.8245 47.4067 20.8245 47.1487C20.8245 46.8908 20.6026 46.6816 20.3289 46.6816C20.0552 46.6816 19.8333 46.8908 19.8333 47.1487C19.8333 47.4067 20.0552 47.6158 20.3289 47.6158Z" fill="#FCC486"/>
<path d="M23.5677 57.6536C23.8414 57.6536 24.0633 57.4445 24.0633 57.1865C24.0633 56.9285 23.8414 56.7194 23.5677 56.7194C23.2939 56.7194 23.072 56.9285 23.072 57.1865C23.072 57.4445 23.2939 57.6536 23.5677 57.6536Z" fill="#FCC486"/>
<path d="M39.4209 58.1207C39.6947 58.1207 39.9166 57.9116 39.9166 57.6536C39.9166 57.3956 39.6947 57.1865 39.4209 57.1865C39.1472 57.1865 38.9253 57.3956 38.9253 57.6536C38.9253 57.9116 39.1472 58.1207 39.4209 58.1207Z" fill="#FCC486"/>
<path d="M54.1104 59.4125C54.3841 59.4125 54.606 59.2033 54.606 58.9454C54.606 58.6874 54.3841 58.4783 54.1104 58.4783C53.8367 58.4783 53.6147 58.6874 53.6147 58.9454C53.6147 59.2033 53.8367 59.4125 54.1104 59.4125Z" fill="#FCC486"/>
<path d="M30.7625 52.9492C31.0362 52.9492 31.2582 52.7401 31.2582 52.4821C31.2582 52.2242 31.0362 52.015 30.7625 52.015C30.4888 52.015 30.2668 52.2242 30.2668 52.4821C30.2668 52.7401 30.4888 52.9492 30.7625 52.9492Z" fill="#FCC486"/>
<path d="M48.2041 50.7455C48.4779 50.7455 48.6998 50.5363 48.6998 50.2784C48.6998 50.0204 48.4779 49.8113 48.2041 49.8113C47.9304 49.8113 47.7085 50.0204 47.7085 50.2784C47.7085 50.5363 47.9304 50.7455 48.2041 50.7455Z" fill="#FCC486"/>
<path d="M30.6553 47.6158C30.9291 47.6158 31.151 47.4067 31.151 47.1487C31.151 46.8908 30.9291 46.6816 30.6553 46.6816C30.3816 46.6816 30.1597 46.8908 30.1597 47.1487C30.1597 47.4067 30.3816 47.6158 30.6553 47.6158Z" fill="#FCC486"/>
</svg>
