<svg width="266" height="148" viewBox="0 0 266 148" fill="none" xmlns="http://www.w3.org/2000/svg">
<path d="M216.063 147.701C192.144 147.701 172.754 145.391 172.754 142.54C172.754 139.689 192.144 137.378 216.063 137.378C239.983 137.378 259.373 139.689 259.373 142.54C259.373 145.391 239.983 147.701 216.063 147.701Z" fill="#DF7300"/>
<path d="M42.7245 144.23C19.1284 144.23 0 141.797 0 138.795C0 135.794 19.1284 133.36 42.7245 133.36C66.3202 133.36 85.4489 135.794 85.4489 138.795C85.4489 141.797 66.3202 144.23 42.7245 144.23Z" fill="#DF7300"/>
<path d="M80.7837 131.862C70.5242 131.862 62.2083 130.477 62.2083 128.769C62.2083 127.061 70.5242 125.676 80.7837 125.676C90.3707 125.676 98.2619 126.886 99.2531 128.438C99.1838 128.547 99.1482 128.657 99.1482 128.769C99.1482 128.881 99.1838 128.991 99.2531 129.1C98.2619 130.653 90.3707 131.862 80.7837 131.862Z" fill="#DF7300"/>
<path d="M117.723 131.862C108.136 131.862 100.245 130.653 99.2532 129.1C99.3225 128.991 99.3581 128.881 99.3581 128.769C99.3581 128.657 99.3225 128.547 99.2532 128.438C100.245 126.886 108.136 125.676 117.723 125.676C127.982 125.676 136.298 127.061 136.298 128.769C136.298 130.477 127.982 131.862 117.723 131.862Z" fill="#DF7300"/>
<path d="M99.2534 129.1C99.184 128.991 99.1484 128.881 99.1484 128.769C99.1484 128.657 99.184 128.547 99.2534 128.438C99.3227 128.547 99.3583 128.657 99.3583 128.769C99.3583 128.881 99.3227 128.991 99.2534 129.1Z" fill="#E2EDF9"/>
<path d="M155.705 131.862C145.446 131.862 137.13 130.477 137.13 128.769C137.13 127.061 145.446 125.676 155.705 125.676C163.875 125.676 170.812 126.554 173.299 127.775C172.663 128.087 172.318 128.421 172.318 128.769C172.318 129.117 172.663 129.451 173.299 129.764C170.812 130.984 163.875 131.862 155.705 131.862Z" fill="#DF7300"/>
<path d="M190.893 131.862C182.724 131.862 175.786 130.984 173.299 129.764C173.935 129.451 174.28 129.117 174.28 128.769C174.28 128.421 173.935 128.087 173.299 127.775C175.786 126.554 182.724 125.676 190.893 125.676C201.152 125.676 209.468 127.061 209.468 128.769C209.468 130.477 201.152 131.862 190.893 131.862Z" fill="#DF7300"/>
<path d="M173.3 129.764C172.663 129.451 172.318 129.117 172.318 128.769C172.318 128.421 172.663 128.087 173.3 127.775C173.935 128.087 174.281 128.421 174.281 128.769C174.281 129.117 173.935 129.451 173.3 129.764Z" fill="#DF7300"/>
<path d="M92.2598 129.053H94.2791L93.2694 83.8411H89.7636L91.3064 111.791H69.5966L71.14 83.8411H67.6335L66.6245 129.053H68.6437L69.4768 113.964H91.4262L92.2598 129.053Z" fill="#6E6442"/>
<path d="M87.0821 96.3821H73.8207C69.0914 96.3821 65.2571 92.7308 65.2571 88.2272V57.878C65.2571 53.3739 69.0914 49.7231 73.8207 49.7231H87.0821C91.8114 49.7231 95.6458 53.3739 95.6458 57.878V88.2272C95.6458 92.7308 91.8114 96.3821 87.0821 96.3821Z" fill="#A89866"/>
<path d="M69.632 113.972L69.7518 111.799L69.4411 111.783L69.3213 113.956" fill="#574F34"/>
<path d="M91.5816 113.956L91.4618 111.783L91.1516 111.799L91.2709 113.972" fill="#574F34"/>
<path d="M60.6442 44.7566C60.2864 43.8138 59.4723 43.2302 58.8256 43.4529C58.1795 43.6756 57.9456 44.6201 58.3033 45.5624C58.5355 46.1728 58.958 46.6292 59.4029 46.8159C59.5772 46.8891 59.7102 47.0261 59.7704 47.1981L62.0247 53.6326C62.1365 53.9515 62.5017 54.1202 62.8337 54.0055C63.1656 53.8914 63.333 53.5393 63.2046 53.2265L60.6155 46.9071C60.5461 46.7379 60.5565 46.5517 60.6413 46.3895C60.8574 45.9752 60.8758 45.3664 60.6442 44.7566Z" fill="#525252"/>
<path d="M79.0864 31.4645C83.1306 31.3876 85.9703 35.8349 86.7483 38.3904C87.5263 40.946 90.4817 46.6867 90.132 48.9092C89.7817 51.1307 83.7532 51.39 81.6142 51.3534C79.4751 51.3163 74.2637 52.3159 72.0467 51.6865C69.8302 51.057 67.7296 50.6497 68.1189 48.2792C68.5076 45.9087 71.1133 40.9913 71.58 38.8763C72.0467 36.7613 73.2913 31.5759 79.0864 31.4645Z" fill="#525252"/>
<path d="M80.0555 52.4633C82.0638 52.7979 83.1801 50.8489 84.8588 50.8167C86.5374 50.7845 89.3897 52.0189 90.9973 53.2533C92.6049 54.4877 94.2789 58.5768 95.6457 61.9398C97.0125 65.3023 98.9314 70.7471 94.2124 70.7471C89.4935 70.7471 65.069 70.7471 63.9281 70.7471C62.7872 70.7471 62.4243 65.8357 64.5507 61.9398C66.6766 58.0434 68.9676 54.2829 70.2546 52.7472C71.927 50.7517 74.7781 50.4962 77.0479 50.8161C79.3171 51.1355 77.9812 52.1177 80.0555 52.4633Z" fill="#E67F53"/>
<path d="M83.1927 41.9205C83.1927 41.9205 83.8927 40.982 84.6965 41.303C85.5009 41.624 85.2154 42.8584 84.6965 43.5501C84.1782 44.2413 83.5814 45.1793 82.9594 44.5623C82.3373 43.9449 83.1927 41.9205 83.1927 41.9205Z" fill="#E08C79"/>
<path d="M73.1065 39.1301C73.3141 38.6857 76.9965 38.7354 77.3072 38.3893C77.6185 38.0437 78.0336 35.5749 78.0336 35.5749C78.0336 35.5749 78.2406 37.8957 79.3815 38.1922C80.5224 38.4886 83.2193 38.6857 83.5816 39.6242C83.9451 40.5621 83.1149 44.1179 82.908 45.7967C82.7004 47.476 82.908 49.698 83.0633 50.1424C83.2193 50.5868 85.4489 51.3768 85.4489 51.3768C85.4489 51.3768 83.1149 56.7102 79.6406 56.7102C76.1663 56.7102 75.3172 50.8336 75.3172 50.8336C75.3172 50.8336 76.2701 50.4384 76.3739 49.9448C76.4776 49.4513 76.2185 48.1246 76.2185 48.1246C76.2185 48.1246 74.2738 47.2042 73.5216 46.1423C72.8858 45.2448 72.4587 43.1549 73.1065 41.1059C73.3358 40.382 73.1065 39.1301 73.1065 39.1301Z" fill="#FFD2B5"/>
<path d="M81.9484 42.1542C81.9484 42.6215 81.4623 42.9999 80.8614 42.9999C80.2612 42.9999 79.7744 42.6215 79.7744 42.1542C79.7744 41.6874 80.2612 41.3096 80.8614 41.3096C81.4623 41.3096 81.9484 41.6874 81.9484 42.1542Z" fill="#FF9B9B"/>
<path d="M75.2505 42.651C75.2505 43.0479 74.836 43.37 74.3251 43.37C73.8143 43.37 73.4004 43.0479 73.4004 42.651C73.4004 42.2535 73.8143 41.9314 74.3251 41.9314C74.836 41.9314 75.2505 42.2535 75.2505 42.651Z" fill="#FF9B9B"/>
<path d="M76.189 48.2038C76.4802 48.2999 76.9641 48.3867 77.5735 48.3867C78.7213 48.3873 80.3111 48.0739 81.8224 46.899L81.835 46.7805L81.7112 46.7691C80.2355 47.9161 78.6887 48.2186 77.5735 48.2186C76.983 48.2191 76.5129 48.1329 76.2469 48.0455L76.1345 48.0974L76.189 48.2038Z" fill="#D18371"/>
<path d="M78.9922 40.2292C78.9922 40.5769 78.8471 40.8586 78.6683 40.8586C78.4888 40.8586 78.3438 40.5769 78.3438 40.2292C78.3438 39.8814 78.4888 39.5997 78.6683 39.5997C78.8471 39.5997 78.9922 39.8814 78.9922 40.2292Z" fill="#525252"/>
<path d="M75.4683 40.2292C75.4683 40.5769 75.3232 40.8586 75.1438 40.8586C74.9649 40.8586 74.8198 40.5769 74.8198 40.2292C74.8198 39.8814 74.9649 39.5997 75.1438 39.5997C75.3232 39.5997 75.4683 39.8814 75.4683 40.2292Z" fill="#525252"/>
<path d="M77.8971 39.0494L77.9108 39.0395C77.9888 38.986 78.3701 38.7507 78.9067 38.7518C79.214 38.7518 79.5746 38.8261 79.9748 39.0592L80.1376 38.8064C79.691 38.5455 79.2679 38.4548 78.9067 38.4554C78.1832 38.457 77.7188 38.8064 77.7039 38.8168L77.8971 39.0494Z" fill="#525252"/>
<path d="M74.428 39.3398L74.4354 39.3343C74.4842 39.2972 74.7364 39.1236 75.1011 39.1247C75.3098 39.1252 75.5597 39.1788 75.8487 39.354L76.0161 39.1039C75.6824 38.9009 75.3682 38.8282 75.1011 38.8282C74.5644 38.8304 74.2365 39.1067 74.2222 39.1181L74.428 39.3398Z" fill="#525252"/>
<path d="M76.5861 40.6332C76.5861 40.6332 76.5982 40.6933 76.6096 40.7872C76.6217 40.8811 76.6337 41.0072 76.6337 41.1338C76.6337 41.2518 76.6228 41.3702 76.5959 41.4609C76.5684 41.5537 76.5265 41.6088 76.4806 41.6279C76.3224 41.6978 76.1212 41.7475 75.9503 41.8261C75.7818 41.9014 75.6235 42.0325 75.6253 42.2476C75.627 42.3764 75.717 42.4709 75.8208 42.5397C76.1367 42.7444 76.7025 42.8214 76.7088 42.8241L76.8092 42.7542L76.7352 42.6581C76.7352 42.6581 76.6756 42.6494 76.5827 42.6303C76.4445 42.6024 76.2358 42.5511 76.069 42.4791C75.9859 42.443 75.9136 42.4015 75.8672 42.36L75.8018 42.2476C75.8036 42.1171 75.8787 42.0505 76.0283 41.9773C76.1751 41.908 76.3757 41.8589 76.5546 41.7802C76.671 41.7278 76.7312 41.6208 76.7656 41.5073C76.8 41.3921 76.8097 41.2611 76.8103 41.1338C76.8097 40.8609 76.7604 40.6054 76.7599 40.6026L76.6572 40.5355L76.5861 40.6332Z" fill="#D18371"/>
<path d="M74.7751 43.4743C74.7831 43.4787 75.7755 44.0361 77.2811 44.0366C78.2385 44.0366 79.4041 43.8095 80.6464 43.0708L80.6745 42.9551L80.553 42.9283C79.3387 43.6495 78.2098 43.8679 77.2811 43.8685C76.5512 43.8685 75.9452 43.7331 75.5227 43.5977C75.3111 43.53 75.146 43.4623 75.0337 43.4121C74.9213 43.3613 74.8651 43.3291 74.8645 43.3296L74.7441 43.3591L74.7751 43.4743Z" fill="#D18371"/>
<path d="M87.8498 55.8913C87.7793 56.202 87.7546 56.4242 87.7546 56.6115C87.7564 56.9914 87.8475 57.1891 87.8469 57.6979C87.8475 58.4977 87.9501 60.6165 88.1605 61.7461C88.2614 62.2877 88.2815 62.8926 88.2878 63.3938C88.2907 63.6443 88.2907 63.8687 88.2964 64.0494C88.3045 64.2329 88.309 64.3595 88.3497 64.4644L88.6146 64.3628C88.6037 64.3443 88.5854 64.2116 88.5819 64.0412C88.5647 63.5171 88.6003 62.5508 88.4415 61.6986C88.2368 60.6061 88.1319 58.478 88.1325 57.6979C88.1313 57.153 88.0384 56.9336 88.0401 56.6115C88.0401 56.4477 88.0614 56.2468 88.129 55.9487L87.8498 55.8913Z" fill="#A85D3C"/>
<path d="M85.9673 65.8036L85.961 65.7774C85.9489 65.7217 85.9237 65.5857 85.9237 65.429C85.9237 65.2936 85.9432 65.1441 85.9982 65.0201C86.0544 64.8956 86.1381 64.7979 86.2843 64.7357C86.8915 64.4791 87.8128 64.4425 88.4606 64.4229C88.8184 64.4098 89.2621 64.2765 89.7024 64.1444C90.1393 64.0118 90.5727 63.8791 90.8542 63.8578C90.9184 63.8529 90.9867 63.8502 91.0572 63.8502C91.3404 63.8502 91.6569 63.8884 91.9005 63.9266C92.1442 63.9648 92.3127 64.003 92.3133 64.003L92.3787 63.7382C92.3735 63.7371 91.6735 63.5788 91.0572 63.5783C90.9803 63.5783 90.9041 63.581 90.8301 63.587C90.4896 63.6148 90.0539 63.7535 89.6159 63.8856C89.1801 64.0178 88.7421 64.1428 88.4509 64.151C87.7996 64.1739 86.8588 64.2001 86.1691 64.4867C85.9495 64.5779 85.8102 64.7422 85.7351 64.9148C85.6588 65.0878 85.6382 65.2707 85.6382 65.429C85.6382 65.6736 85.6881 65.8631 85.6898 65.8696L85.9673 65.8036Z" fill="#A85D3C"/>
<path d="M71.1087 55.2308C71.8878 56.3216 72.0323 58.0872 72.03 59.9521C72.03 60.325 72.0243 60.7017 72.018 61.0779C72.0002 62.1113 71.6728 63.0329 71.3426 63.8922C71.0141 64.7515 70.6793 65.5475 70.6776 66.3397C70.6776 66.4434 70.6839 66.5477 70.6965 66.6515C70.7292 66.919 70.7429 67.2165 70.7429 67.525C70.7429 68.2647 70.6638 69.0656 70.5841 69.6809C70.505 70.2957 70.4253 70.722 70.4253 70.7231L70.7068 70.7706C70.7074 70.7663 71.0284 69.0394 71.0284 67.525C71.0284 67.2089 71.0147 66.902 70.9803 66.6198C70.9688 66.5275 70.9636 66.4342 70.9636 66.3397C70.9619 65.6234 71.279 64.8487 71.6109 63.9856C71.9423 63.1224 72.2846 62.1687 72.3035 61.0828C72.3098 60.7055 72.3155 60.3272 72.3155 59.9521C72.3132 58.0752 72.1871 56.2719 71.3455 55.0784L71.1087 55.2308Z" fill="#A85D3C"/>
<path d="M62.8264 53.4509C62.5432 52.3726 63.0597 49.8957 62.0094 49.3399C60.9591 48.7847 60.8817 49.0806 60.2207 48.8584C59.5591 48.6362 58.4314 48.6362 58.237 49.2656C58.0421 49.8957 58.0811 52.0844 58.7817 53.1566C59.4817 54.2289 59.9094 55.3399 60.1037 56.4137C60.2981 57.4876 60.5704 70.7471 64.5762 70.7471C68.5825 70.7471 67.1435 63.8577 66.7152 62.5245C66.2875 61.1913 63.1377 54.6361 62.8264 53.4509Z" fill="#FCC486"/>
<path d="M87.6392 65.4874C89.2726 65.447 92.384 70.7471 89.0392 70.7471C85.6945 70.7471 69.3601 70.7471 69.3601 70.7471C69.3601 70.7471 70.1375 68.3023 72.4709 68.3766C74.8049 68.4503 73.2879 68.8581 76.166 68.3766C79.044 67.8951 86.1612 65.5245 87.6392 65.4874Z" fill="#FFD2B5"/>
<path d="M77.6548 58.2585C77.6548 58.2585 78.919 55.4234 79.5926 55.3961C80.2668 55.3699 79.6448 57.1224 79.7222 57.0487C79.8001 56.9744 81.4599 54.2829 82.2895 54.3817C83.1191 54.4806 81.304 57.2709 81.304 57.2709C81.304 57.2709 82.9895 55.9574 83.482 56.1697C83.9745 56.3821 80.5684 59.464 80.5684 59.464L77.6548 58.2585Z" fill="#90CF7D"/>
<path d="M69.8198 59.464C69.8198 59.464 71.4291 55.3961 74.7893 55.3961C78.1501 55.3961 80.1137 59.464 80.1137 59.464H69.8198Z" fill="#FAF895"/>
<path d="M70.8103 59.5012L70.8223 59.4662C70.8842 59.2937 71.2036 58.5125 72.1478 57.7383C72.6627 57.3157 73.0279 56.9499 73.3908 56.6994C73.7554 56.4493 74.108 56.3074 74.6503 56.3057C74.7455 56.3057 74.8458 56.3101 74.9531 56.3199C75.5906 56.3734 76.4213 56.8359 77.1162 57.3752C77.8116 57.9092 78.3849 58.5316 78.53 58.8346C78.8671 59.5214 78.8671 59.5214 78.8671 59.5214L79.1257 59.4062C79.1257 59.4062 79.1257 59.4062 78.7886 58.7194C78.5965 58.335 78.0163 57.723 77.2956 57.164C76.575 56.6093 75.7276 56.119 74.98 56.0491C74.8648 56.0388 74.7553 56.0338 74.6503 56.0338C74.0524 56.0317 73.6167 56.2053 73.2228 56.4793C72.8278 56.7534 72.4654 57.1197 71.9615 57.5325C70.8263 58.4628 70.5408 59.41 70.5356 59.4269L70.8103 59.5012Z" fill="#C7C576"/>
<path d="M71.628 59.5393C71.628 59.5393 71.6939 59.446 71.8023 59.2991C71.9645 59.0791 72.2219 58.7411 72.4891 58.4288C72.754 58.1176 73.0383 57.8299 73.2184 57.7257C73.4626 57.5815 73.7773 57.4003 74.099 57.2572C74.4195 57.1131 74.7485 57.0099 75.0002 57.011C75.0753 57.011 75.143 57.0197 75.202 57.0367C75.7318 57.183 76.6164 57.8556 76.9833 58.2591C77.1542 58.443 77.2941 58.7548 77.3829 59.0168C77.4276 59.1484 77.4609 59.2674 77.4827 59.3531C77.5045 59.4389 77.5142 59.4891 77.5142 59.4891L77.7951 59.4383C77.794 59.4345 77.7493 59.2117 77.6541 58.9327C77.5578 58.6538 77.4162 58.318 77.1977 58.08C76.7867 57.6389 75.9215 56.9641 75.2846 56.7762C75.1929 56.75 75.0977 56.7391 75.0002 56.7391C74.6723 56.7402 74.318 56.8598 73.9774 57.0105C73.638 57.1622 73.3147 57.349 73.0676 57.4947C72.7465 57.688 72.3458 58.1526 72.0012 58.5795C71.6601 59.0048 71.3918 59.3864 71.3906 59.3881L71.628 59.5393Z" fill="#C7C576"/>
<path d="M73.0962 59.5234C73.0962 59.5229 73.1426 59.4328 73.2263 59.293C73.3525 59.0834 73.5617 58.7673 73.8094 58.5069C74.0571 58.2437 74.3437 58.0494 74.5885 58.0423L74.6212 58.0417C74.9687 58.0374 75.4382 58.3011 75.8149 58.6292C76.0046 58.7919 76.1726 58.9682 76.2982 59.126C76.4243 59.2827 76.5069 59.4274 76.5246 59.4983L76.801 59.429C76.7614 59.2909 76.664 59.1369 76.5264 58.9617C76.3194 58.7023 76.0201 58.4108 75.6865 58.1788C75.3522 57.9484 74.9847 57.772 74.6212 57.7699L74.5754 57.771C74.0663 57.8021 73.6575 58.2263 73.3467 58.6183C73.0389 59.0141 72.8416 59.3995 72.8394 59.4039L73.0962 59.5234Z" fill="#C7C576"/>
<path d="M79.3918 62.2599H71.3929C69.7928 62.2599 68.4954 61.0244 68.4954 59.5007V58.6222H82.2894V59.5007C82.2894 61.0244 80.992 62.2599 79.3918 62.2599Z" fill="white"/>
<path d="M47.812 123.259C47.812 123.259 49.7653 133.679 49.4884 134.962C49.2121 136.246 48.6932 137.826 49.6787 138.172C50.6637 138.518 57.872 138.024 59.5834 138.172C61.2947 138.32 63.6281 137.925 63.8357 137.233C64.0432 136.543 57.7166 134.518 56.5241 133.086C55.3311 131.654 53.8789 123.061 53.8789 123.061L47.812 123.259Z" fill="#FFD2B5"/>
<path d="M25.1115 121.572C25.1115 121.572 22.713 129.804 22.6095 130.679C22.5056 131.555 24.5281 134.962 25.7207 135.999C26.9136 137.036 27.7951 137.776 27.5358 138.172C27.2766 138.567 23.6983 138.122 20.6907 136.591C17.683 135.061 15.142 131.888 15.2457 130.808C15.3494 129.727 16.6837 128.802 17.2682 127.407C18.5123 124.437 18.4998 122.431 18.7331 121.196L25.1115 121.572Z" fill="#FFD2B5"/>
<path d="M48.9009 56.5939C48.9009 56.5939 53.1194 101.836 53.4473 105.782C53.7758 109.728 54.7092 124.148 54.7092 124.148C54.7092 124.148 46.4117 124.543 45.3745 124.148C44.3375 123.753 42.8855 111.605 42.5743 107.951C42.2634 104.296 38.5295 91.2098 38.5295 91.2098C38.5295 91.2098 26.447 123.144 26.032 123.067C25.6173 122.991 16.283 123.639 16.1793 123.067C16.0756 122.497 25.9801 96.8893 26.8098 93.3335C27.6396 89.7777 27.7433 80.4944 28.2619 73.2846C28.7806 66.0748 29.7815 55.3961 29.7815 55.3961L48.9009 56.5939Z" fill="#525252"/>
<path d="M38.6654 91.1699C37.7867 88.4625 37.2698 85.754 36.9562 84.5601C36.7963 83.9519 36.3558 82.819 35.9276 81.7129C35.5003 80.6101 35.0849 79.5297 34.987 79.0836C34.8853 78.6245 34.7814 77.8596 34.7039 77.2138C34.6265 76.5668 34.5747 76.0383 34.5745 76.0372L34.2903 76.0624C34.2907 76.0656 34.4968 78.1845 34.7075 79.1399C34.8173 79.6318 35.2313 80.6997 35.6598 81.8068C36.0873 82.9102 36.5282 84.049 36.6792 84.6261C36.9885 85.8021 37.5083 88.5258 38.3927 91.2501L38.6654 91.1699Z" fill="#9E9E9E"/>
<path d="M45.7643 27.8045C45.7643 27.8045 52.065 55.2111 51.1311 56.9887C50.1977 58.7668 33.405 58.5495 29.5605 57.8005C26.9142 57.2851 29.2736 28.4465 34.0184 27.3104C38.7633 26.1748 44.364 23.4342 45.7643 27.8045Z" fill="#8F4F33"/>
<path d="M55.4088 5.43478C56.1742 7.30848 55.8531 11.658 54.0191 13.3194C52.185 14.9807 51.1559 16.5143 51.1559 18.0478C51.1559 19.5808 51.2006 20.3479 49.0089 20.3479C46.8171 20.3479 40.7336 20.3479 40.7336 20.3479C40.7336 20.3479 38.3181 19.3679 39.0336 15.3214C39.7494 11.2748 37.8706 6.75925 44.2674 4.58692C50.664 2.41459 54.6062 3.47101 55.4088 5.43478Z" fill="#525252"/>
<path d="M64.3926 55.3961C64.3926 55.3961 65.8316 57.4701 67.8933 57.8408C69.9544 58.211 74.2714 58.1739 74.1545 58.6554C74.0381 59.1369 71.7047 59.174 71.5493 59.8406C71.3934 60.5072 75.8269 61.9518 75.6325 62.3591C75.4382 62.7664 70.6544 62.6184 68.4374 61.396C66.2209 60.1742 62.3315 57.9151 62.3315 57.9151L64.3926 55.3961Z" fill="#FFD2B5"/>
<path d="M39.852 16.2124C39.852 16.2124 44.9469 18.1751 45.4526 18.4344C45.9581 18.6937 45.647 20.2862 45.4526 20.9529C45.258 21.6194 46.9254 27.1008 46.9254 27.1008L54.32 43.286C54.32 43.286 65.6384 54.5445 65.58 55.2854C65.5209 56.0262 63.0321 60.0258 62.5655 59.9521C62.0988 59.8779 49.3419 49.8777 47.8639 48.0264C46.386 46.1746 45.7639 45.1373 45.7639 45.1373C45.7639 45.1373 46.5412 65.8778 42.808 82.4698C42.808 82.4698 24.6837 84.1851 21.7278 81.4756C18.7723 78.766 26.2398 57.8579 26.7062 49.6086C27.173 41.3599 26.6601 33.3426 33.2405 20.3479C34.6404 17.5827 35.3179 14.438 39.852 16.2124Z" fill="#DF6347"/>
<path d="M52.9981 6.50863C52.9981 6.50863 53.2698 8.50898 52.9981 9.61998C52.7257 10.731 52.9591 11.2125 53.3094 11.5827C53.6591 11.9534 53.0755 11.9899 52.6088 12.0271C52.2591 12.5086 52.0257 13.1386 52.0257 13.1386C52.0257 13.1386 50.5506 12.7685 49.7112 12.3312C49.557 12.2504 49.377 12.3879 49.4349 12.5457C49.7382 13.3772 50.1808 14.1148 51.0534 14.5455C50.5087 15.6937 49.8477 17.2491 48.8364 17.2491C47.825 17.2491 45.8805 16.1752 45.4528 16.5459C45.025 16.916 44.6747 18.4343 44.6747 18.4343L40.4355 17.064C40.4355 17.064 42.1468 11.5461 41.9521 8.91626C41.758 6.28643 51.3647 3.24986 52.9981 6.50863Z" fill="#FFD2B5"/>
<path d="M44.2208 13.3734L44.2183 13.4476C44.2152 13.797 44.3522 15.3355 46.4583 16.2767L46.5335 16.125C44.5005 15.2121 44.3979 13.7643 44.3948 13.4476L44.3966 13.387L44.2208 13.3734Z" fill="#E08C79"/>
<path d="M47.0524 27.2487C47.0507 27.246 45.8672 25.0294 45.338 24.2727C45.0775 23.9009 44.6762 23.3353 44.1282 22.8527C43.5808 22.3712 42.8783 21.9666 42.0215 21.9404C41.9568 21.9383 41.8916 21.9377 41.8257 21.9377C41.0153 21.9377 40.1356 22.0857 39.4042 22.3505C38.6757 22.6174 38.0824 22.9941 37.877 23.5106C37.688 24.0008 37.5212 24.8405 37.3969 25.5666C37.2733 26.2916 37.1953 26.8982 37.1951 26.8993L37.4786 26.932C37.4789 26.9309 37.5561 26.3299 37.6788 25.6103C37.8007 24.8924 37.9709 24.0533 38.1451 23.605C38.2884 23.2196 38.8104 22.8544 39.5058 22.6043C40.1985 22.3526 41.052 22.209 41.8257 22.2096C41.8885 22.2096 41.9507 22.2107 42.0123 22.2123C42.776 22.2353 43.4153 22.5967 43.9342 23.0525C44.4525 23.5084 44.8421 24.0543 45.1004 24.4234C45.3526 24.7832 45.7801 25.5246 46.1406 26.171C46.5017 26.8179 46.7973 27.371 46.7979 27.3721L47.0524 27.2487Z" fill="#A85D3C"/>
<path d="M44.1272 42.2104C44.1272 42.2104 46.4249 41.9489 47.981 42.2104C49.5364 42.4708 51.805 43.9028 52.3365 45.841C52.5698 46.6905 52.0062 51.7405 52.0062 51.7405C52.0062 51.7405 49.3856 49.869 48.1885 48.3845C46.992 46.8996 45.1157 44.7917 44.1272 42.2104Z" fill="#E6D18A"/>
<path d="M44.4319 121.637C44.4341 121.638 46.6342 121.779 49.6298 121.779C51.1278 121.779 52.8249 121.743 54.5454 121.637L54.527 121.366C52.814 121.471 51.1232 121.507 49.6298 121.507C48.1368 121.507 46.8411 121.471 45.9196 121.436C44.998 121.401 44.4525 121.366 44.4512 121.366L44.4319 121.637Z" fill="#9E9E9E"/>
<path d="M17.6807 120.344C17.6854 120.345 19.5144 120.542 22.8342 120.542C24.0057 120.542 25.3631 120.517 26.8914 120.451L26.8783 120.179C25.3546 120.245 24.0017 120.27 22.8342 120.27C21.1801 120.27 19.8987 120.22 19.0311 120.172C18.5973 120.147 18.2672 120.123 18.0457 120.105C17.8242 120.086 17.7129 120.074 17.7127 120.074L17.6807 120.344Z" fill="#9E9E9E"/>
<path d="M63.8362 137.233C64.0345 136.573 58.2698 134.696 56.7161 133.281C55.9456 134.09 54.9285 134.93 53.8278 135.211C52.5097 135.547 50.7617 135.267 49.4895 134.958L49.4889 134.962C49.2126 136.246 48.6937 137.826 49.6792 138.172C50.6642 138.518 57.8725 138.024 59.5839 138.172C61.2952 138.32 63.6286 137.925 63.8362 137.233Z" fill="#525252"/>
<path d="M25.7207 135.999C24.8869 135.274 23.6498 133.392 23.0148 132.025C19.7068 133.001 17.4725 130.023 16.5953 128.544C15.9951 129.365 15.3185 130.05 15.2457 130.808C15.142 131.888 17.683 135.061 20.6907 136.591C23.6983 138.122 27.2766 138.567 27.5358 138.172C27.7951 137.776 26.9136 137.036 25.7207 135.999Z" fill="#525252"/>
<path d="M55.4096 5.43476C55.4096 5.43476 55.0203 7.13867 52.0259 7.47169C49.0309 7.80472 47.6308 7.69389 47.1641 8.43474C46.6975 9.17559 46.7754 10.3608 46.3863 10.1015C45.9973 9.8422 46.7754 8.65695 46.3863 8.1383C45.9973 7.62019 44.9083 7.24895 44.2082 7.78616C43.5083 8.32337 43.8194 10.2124 43.8583 10.8053C43.8971 11.3976 44.0321 11.8524 44.5766 12.4076C45.121 12.9634 43.9984 15.4808 44.2082 16.9161C44.4185 18.3514 45.336 21.5823 42.3026 21.5823C39.2689 21.5823 36.7797 21.5823 34.0963 21.5823C31.4127 21.5823 33.0462 17.6564 34.8741 14.8049C36.7022 11.9534 38.9966 7.06441 39.6966 4.13868C40.3967 1.21239 45.3725 -1.13518 50.8982 0.58292C54.7096 1.76818 55.4096 5.43476 55.4096 5.43476Z" fill="#525252"/>
<path d="M51.7875 10.0196C51.6757 10.4002 51.459 10.6753 51.3031 10.6344C51.1471 10.5929 51.111 10.2506 51.2222 9.87006C51.3335 9.48899 51.5508 9.21437 51.7067 9.25532C51.8626 9.29681 51.8988 9.63912 51.7875 10.0196Z" fill="#3D3D3D"/>
<path d="M50.4648 10.671C50.4746 10.6802 50.9401 11.1181 51.9365 11.2322L51.9577 11.0651C51.483 11.0111 51.1391 10.8806 50.9143 10.7643C50.8025 10.7064 50.72 10.6524 50.6661 10.6131L50.607 10.5672L50.5898 10.5519L50.4648 10.671Z" fill="#E08C79"/>
<path d="M49.6989 11.4337C49.6921 11.4386 48.2462 12.216 47.6746 13.7098L47.8408 13.7671C48.112 13.0546 48.5987 12.5065 49.0184 12.1369C49.2282 11.9523 49.4215 11.8126 49.5614 11.7192C49.7012 11.6253 49.7861 11.58 49.7861 11.58L49.6989 11.4337Z" fill="#E08C79"/>
<path d="M52.5688 9.38904C52.4713 9.38904 52.3755 9.34591 52.3148 9.26456C51.8338 8.62089 51.0076 8.88896 50.999 8.89114C50.8373 8.94519 50.6596 8.86493 50.6023 8.70988C50.5455 8.55538 50.6309 8.38614 50.7926 8.33209C51.2318 8.18523 52.2219 8.11754 52.8222 8.92117C52.9214 9.05493 52.8887 9.23945 52.7488 9.33444C52.6937 9.37157 52.6313 9.38904 52.5688 9.38904Z" fill="#525252"/>
<path d="M45.8826 45.0625C44.5212 43.1075 43.54 40.3515 42.6434 38.991C41.7735 37.6769 40.8397 35.408 40.3709 34.4154C40.1367 33.9197 39.6706 32.9703 39.25 32.0646C39.0397 31.6114 38.8411 31.1697 38.689 30.8034C38.5372 30.4387 38.432 30.1406 38.4113 30.0063L38.1289 30.0478C38.1603 30.234 38.2689 30.5288 38.4234 30.9033C38.8859 32.0192 39.7613 33.7881 40.1105 34.5268C40.5754 35.509 41.5084 37.7839 42.4017 39.1362C43.2677 40.4421 44.2576 43.2167 45.6445 45.2126L45.8826 45.0625Z" fill="#A85D3C"/>
<path d="M129.531 129.053H131.55L130.54 83.8411H127.034L128.577 111.791H106.867L108.411 83.8411H104.905L103.895 129.053H105.915L106.748 113.964H128.698L129.531 129.053Z" fill="#6E6442"/>
<path d="M124.354 96.3821H111.093C106.363 96.3821 102.529 92.7308 102.529 88.2272V57.878C102.529 53.3739 106.363 49.7231 111.093 49.7231H124.354C129.084 49.7231 132.917 53.3739 132.917 57.878V88.2272C132.917 92.7308 129.084 96.3821 124.354 96.3821Z" fill="#A89866"/>
<path d="M106.904 113.972L107.023 111.799L106.713 111.783L106.593 113.956" fill="#574F34"/>
<path d="M128.853 113.956L128.733 111.783L128.422 111.799L128.543 113.972" fill="#574F34"/>
<path d="M166.802 129.053H168.822L167.812 83.8411H164.306L165.849 111.791H144.139L145.683 83.8411H142.177L141.167 129.053H143.186L144.019 113.964H165.969L166.802 129.053Z" fill="#6E6442"/>
<path d="M161.625 96.3821H148.364C143.634 96.3821 139.8 92.7308 139.8 88.2272V57.878C139.8 53.3739 143.634 49.7231 148.364 49.7231H161.625C166.355 49.7231 170.189 53.3739 170.189 57.878V88.2272C170.189 92.7308 166.355 96.3821 161.625 96.3821Z" fill="#A89866"/>
<path d="M144.175 113.972L144.295 111.799L143.984 111.783L143.864 113.956" fill="#574F34"/>
<path d="M166.125 113.956L166.005 111.783L165.694 111.799L165.814 113.972" fill="#574F34"/>
<path d="M204.074 129.053H206.093L205.083 83.8411H201.577L203.121 111.791H181.411L182.954 83.8411H179.448L178.438 129.053H180.457L181.291 113.964H203.241L204.074 129.053Z" fill="#6E6442"/>
<path d="M198.896 96.3821H185.635C180.905 96.3821 177.071 92.7308 177.071 88.2272V57.878C177.071 53.3739 180.905 49.7231 185.635 49.7231H198.896C203.626 49.7231 207.46 53.3739 207.46 57.878V88.2272C207.46 92.7308 203.626 96.3821 198.896 96.3821Z" fill="#A89866"/>
<path d="M181.446 113.972L181.567 111.799L181.256 111.783L181.135 113.956" fill="#574F34"/>
<path d="M203.396 113.956L203.277 111.783L202.966 111.799L203.086 113.972" fill="#574F34"/>
<path d="M189.279 37.4017C192.17 37.4017 194.918 39.1798 196.189 40.0686C197.459 40.9574 200.735 42.9419 201.897 45.3572C203.059 47.7719 203.89 50.3892 204.512 52.6609C205.134 54.9326 205.177 56.6332 204.222 56.8199C203.268 57.0066 201.504 56.4629 201.297 57.2534C201.09 58.0434 200.83 70.7471 200.83 70.7471H175.161C175.161 70.7471 175.368 55.1297 174.954 54.8583C174.539 54.5865 172.931 55.377 172.568 54.8583C172.205 54.3397 174.449 47.9384 175.368 45.5881C176.717 42.1427 185.092 37.4017 189.279 37.4017Z" fill="#525252"/>
<path d="M180.405 55.2767C180.644 55.3094 180.856 55.3247 181.045 55.3247C181.669 55.3258 182.057 55.1565 182.278 54.9218C182.499 54.687 182.54 54.4124 182.54 54.2383C182.54 54.1252 182.523 54.0505 182.522 54.0428L182.369 54.0745L182.518 54.1192C182.518 54.1171 183.036 52.5578 183.229 51.7558C183.423 50.9418 183.617 48.9382 183.665 47.332L183.666 47.2932C183.663 46.7637 183.372 45.7853 182.651 44.9102C181.932 44.0378 180.763 43.2844 179.048 43.286C178.8 43.286 178.54 43.3013 178.269 43.334L178.309 43.6283C178.567 43.5966 178.813 43.5819 179.048 43.5819C180.665 43.5835 181.728 44.2774 182.407 45.0936C183.083 45.9065 183.357 46.8581 183.355 47.2932L183.354 47.3233C183.308 48.9098 183.11 50.9233 182.926 51.6898C182.833 52.0774 182.656 52.6648 182.503 53.1524C182.35 53.6404 182.221 54.0292 182.221 54.0297L182.209 54.0674L182.217 54.1061L182.218 54.1116C182.221 54.128 182.229 54.1749 182.229 54.2383C182.229 54.3709 182.197 54.5658 182.047 54.7236C181.897 54.8808 181.616 55.0272 181.045 55.0283C180.873 55.0283 180.676 55.0146 180.451 54.9835L180.405 55.2767Z" fill="#363636"/>
<path d="M194.868 47.3522C194.868 47.3522 194.891 47.4784 194.913 47.6869C194.936 47.8949 194.958 48.1832 194.958 48.4982C194.959 48.8132 194.936 49.1561 194.87 49.4716C194.658 50.4975 194.864 51.1832 194.612 52.1822C194.562 52.3815 194.542 52.5781 194.542 52.7691C194.545 53.5002 194.82 54.1602 194.815 54.6008C194.815 54.6827 194.807 54.7558 194.788 54.8197C194.769 54.8858 194.761 54.954 194.761 55.0228C194.764 55.3924 195.003 55.7697 195.383 56.0819C195.765 56.3931 196.298 56.6377 196.922 56.7092L196.959 56.415C196.398 56.3511 195.919 56.1294 195.585 55.857C195.249 55.5846 195.069 55.2603 195.072 55.0228L195.089 54.8972C195.116 54.8017 195.126 54.7023 195.126 54.6008C195.121 54.0636 194.85 53.4319 194.853 52.7691C194.853 52.5972 194.871 52.4241 194.914 52.2505C195.18 51.1761 194.972 50.4789 195.175 49.5295C195.246 49.1866 195.27 48.8268 195.27 48.4982C195.27 47.8414 195.176 47.3086 195.175 47.3031L194.868 47.3522Z" fill="#363636"/>
<path d="M193.654 24.78C193.654 24.78 194.749 26.6853 194.976 28.8069C195.202 30.9284 196.297 35.8185 194.314 36.2143C192.332 36.6096 192.332 36.6096 192.332 36.6096C192.332 36.6096 192.559 39.0188 192.634 39.882C192.71 40.7446 186.026 41.3921 185.913 39.882C185.8 38.3713 185.913 35.8185 185.913 35.8185C185.913 35.8185 183.836 31.108 183.27 29.0585C182.703 27.0091 183.232 23.4495 186.97 22.4067C190.708 21.364 193.267 24.002 193.654 24.78Z" fill="#FFD2B5"/>
<path d="M192.186 28.9847C192.2 29.4275 192.192 29.7927 192.26 30.0782C192.323 30.3632 192.496 30.581 192.826 30.6444C193.121 30.7055 193.443 30.7137 193.687 30.7355C193.808 30.7459 193.91 30.7607 193.971 30.7819L194.026 30.8103L194.032 30.8223L194.03 30.8371V30.8365C194.016 30.9168 193.833 31.0424 193.647 31.1188C193.555 31.1592 193.464 31.1914 193.397 31.2138C193.33 31.2356 193.287 31.2471 193.287 31.2471L193.226 31.3514L193.336 31.4087C193.338 31.4081 193.523 31.3579 193.721 31.2717C193.917 31.1816 194.136 31.0729 194.2 30.8813V30.8808L194.208 30.8223C194.21 30.7727 194.186 30.7235 194.151 30.6919C194.029 30.587 193.84 30.5821 193.606 30.5603C193.373 30.5428 193.101 30.5297 192.863 30.4806C192.597 30.4205 192.498 30.2928 192.432 30.0405C192.37 29.7894 192.375 29.4264 192.362 28.9803L192.271 28.8984L192.186 28.9847Z" fill="#D18371"/>
<path d="M190.228 32.5831C190.23 32.5831 190.274 32.6208 190.342 32.6612C190.551 32.7879 191.04 32.9899 192.152 32.9899C192.609 32.9899 193.173 32.956 193.867 32.8681L193.943 32.7737L193.843 32.7016C193.156 32.7884 192.6 32.8217 192.152 32.8217C191.425 32.8217 190.981 32.7338 190.715 32.6443C190.582 32.5995 190.494 32.5547 190.436 32.5198C190.375 32.4827 190.354 32.4619 190.326 32.4434L190.203 32.4663L190.228 32.5831Z" fill="#D18371"/>
<path d="M186.693 34.1877C186.693 34.2019 187.478 36.6292 191.08 36.6865L191.17 36.6041L191.083 36.5189C189.327 36.4889 188.278 35.89 187.66 35.302C187.352 35.0077 187.151 34.7151 187.029 34.4973C186.967 34.3881 186.926 34.2975 186.899 34.2347C186.873 34.1724 186.863 34.1397 186.862 34.1397L186.753 34.0835L186.694 34.1883" fill="#D18371"/>
<path d="M191.081 29.6989C191.081 30.0942 190.901 30.4147 190.679 30.4147C190.457 30.4147 190.277 30.0942 190.277 29.6989C190.277 29.3031 190.457 28.9826 190.679 28.9826C190.901 28.9826 191.081 29.3031 191.081 29.6989Z" fill="#525252"/>
<path d="M194.002 29.331C194.002 29.7262 193.822 30.0472 193.599 30.0472C193.378 30.0472 193.197 29.7262 193.197 29.331C193.197 28.9357 193.378 28.6152 193.599 28.6152C193.822 28.6152 194.002 28.9357 194.002 29.331Z" fill="#525252"/>
<path d="M189.343 28.542C189.343 28.542 189.375 28.5278 189.438 28.5049C189.625 28.4361 190.067 28.298 190.516 28.2991C190.817 28.2991 191.115 28.3591 191.354 28.5262L191.538 28.287C191.226 28.0703 190.859 28.0026 190.516 28.0026C189.832 28.0042 189.226 28.2685 189.215 28.2718L189.343 28.542Z" fill="#525252"/>
<path d="M192.937 28.2706L192.953 28.2603C193.034 28.2062 193.42 27.984 193.795 27.9867C193.931 27.9873 194.065 28.014 194.192 28.0834L194.347 27.8262C194.167 27.7274 193.975 27.6903 193.795 27.6908C193.231 27.6946 192.767 28.025 192.755 28.0304L192.937 28.2706Z" fill="#525252"/>
<path d="M186.466 31.0626C186.466 31.0626 187.088 28.1391 187.607 27.5113C188.126 26.884 188.644 28.1183 190.2 27.3775C191.756 26.6372 191.963 26.1922 193.311 25.8712C194.66 25.5502 195.541 24.0199 195.541 22.6862C195.541 21.3529 194.037 18.5386 191.6 18.2913C189.163 18.0445 187.763 19.9706 186.466 20.7109C185.17 21.4518 181.384 23.0814 180.814 24.9579C180.243 26.8343 179.258 27.9207 181.332 30.5871C183.407 33.2541 185.247 34.0932 185.325 35.3527C185.403 36.6122 185.792 36.7356 186.051 36.5128C186.31 36.2906 186.985 34.316 186.725 33.9949C186.466 33.6739 185.999 33.8464 185.481 32.7846C184.963 31.7232 184.781 30.6614 185.092 30.4637C185.403 30.2666 186.259 31.192 186.466 31.0626Z" fill="#525252"/>
<path d="M196.655 55.2285C196.655 54.1918 203.967 53.3767 203.967 54.8584C203.967 56.3395 207.227 70.7471 201.435 70.7471C195.645 70.7471 177.987 70.7471 177.987 70.7471C177.987 70.7471 179.935 68.4175 182.578 68.1931C185.221 67.9693 186.881 68.2652 189.279 68.043C191.677 67.8208 197.589 66.1911 197.589 66.1911C197.589 66.1911 196.655 57.0067 196.655 55.2285Z" fill="#FFB3A3"/>
<path d="M181.254 54.3397V59.9952C181.254 59.9952 190.511 50.0436 191.755 48.7104C192.999 47.3767 195.1 45.0111 195.799 44.8604C196.5 44.7103 195.317 45.8955 195.481 46.5621C195.645 47.2287 199.145 46.1772 200.156 45.8513C201.167 45.5254 203.034 44.9101 202.956 45.5882C202.878 46.2662 199.689 49.1516 198.134 49.7461C196.578 50.3401 195.645 50.3401 194.789 51.0438C193.933 51.747 183.976 70.7471 177.987 70.7471C171.998 70.7471 173.112 55.6729 173.332 54.266C173.553 52.858 181.254 52.71 181.254 54.3397Z" fill="#FFD2B5"/>
<path d="M182.242 68.3914C182.241 68.3914 182.089 68.5328 181.83 68.7468C181.055 69.3899 179.312 70.6691 177.987 70.6631L177.899 70.7472L177.987 70.8307C178.944 70.8285 180.029 70.2443 180.886 69.6678C181.741 69.0896 182.363 68.5137 182.365 68.5115L182.367 68.393L182.242 68.3914Z" fill="#D18371"/>
<path d="M181.07 60.1214C181.067 60.1252 178.891 61.9323 178.212 63.0307L178.244 63.1454L178.365 63.1154C178.685 62.5934 179.393 61.8706 180.018 61.2859C180.331 60.9927 180.623 60.7328 180.837 60.5467C181.051 60.3605 181.186 60.248 181.186 60.2475L181.194 60.129L181.07 60.1214Z" fill="#D18371"/>
<path d="M204.827 65.5786C203.239 66.8474 201.973 67.6215 200.315 68.1347C198.241 68.7767 189.736 68.5791 191.033 70.2088C191.171 70.3818 191.401 70.5625 191.698 70.7471C195.57 70.7471 199.306 70.7471 201.436 70.7471C203.752 70.7471 204.619 68.4394 204.827 65.5786Z" fill="#D18371"/>
<path d="M205.422 70.3016C204.696 70.2028 204.645 68.1037 205.474 65.5486C206.304 62.9931 208.949 61.0178 207.756 56.475C207.756 56.475 205.993 55.9814 204.178 55.9814C202.363 55.9814 200.599 56.475 200.599 56.475C199.407 61.0178 202.052 62.9931 202.881 65.5486C203.711 68.1037 203.659 70.2028 202.933 70.3016C202.207 70.4005 201.048 70.8077 201.636 70.8077C202.226 70.8077 204.178 70.8077 204.178 70.8077C204.178 70.8077 206.13 70.8077 206.718 70.8077C207.308 70.8077 206.148 70.4005 205.422 70.3016Z" fill="#FFDFD1"/>
<path d="M204.177 57.6351C202.466 57.6351 200.91 58.0549 200.91 58.0549C200.91 58.0549 200.975 59.6769 201.325 60.7846C201.844 62.4252 203.373 63.9561 204.177 63.9561C204.981 63.9561 206.511 62.4252 207.029 60.7846C207.379 59.6769 207.444 58.0549 207.444 58.0549C207.444 58.0549 205.888 57.6351 204.177 57.6351Z" fill="#E67F53"/>
<path d="M204.565 61.9672L205.928 54.4265C205.976 54.1601 206.146 53.9281 206.391 53.7932L209.707 51.9681L209.551 51.7115L206.235 53.5366C205.91 53.7157 205.685 54.0231 205.621 54.3763L204.258 61.9169L204.565 61.9672Z" fill="#A85D3C"/>
<path d="M184.198 125.07C185.297 126.067 186.143 127.884 185.597 128.922C185.053 129.958 180.62 134.255 176.924 135.292C173.23 136.329 172.812 134.73 173.319 133.254C173.826 131.779 181.747 122.847 184.198 125.07Z" fill="#234E7A"/>
<path d="M184.47 117.921C184.47 117.921 184.352 123.107 184.47 124.662C184.586 126.218 185.402 126.106 184.975 127.847C184.547 129.588 177.235 135.736 174.512 134.81C171.79 133.884 174.396 130.921 175.679 128.884C176.963 126.848 178.978 124.622 179.191 122.847C179.405 121.073 179.024 118.292 179.024 118.292L184.47 117.921Z" fill="#FFD2B5"/>
<path d="M180.937 132.433C180.934 132.433 179.813 132.322 178.572 132.322C177.557 132.325 176.471 132.391 175.809 132.676L175.874 132.81L176.025 132.774C175.9 132.308 175.852 131.803 175.852 131.301C175.852 130.492 175.978 129.696 176.105 129.105C176.169 128.809 176.233 128.564 176.28 128.394C176.327 128.223 176.358 128.13 176.358 128.129L176.061 128.041C176.06 128.049 175.541 129.625 175.541 131.301C175.541 131.821 175.591 132.35 175.723 132.847L175.77 133.019L175.939 132.945C176.501 132.697 177.577 132.617 178.572 132.619C179.183 132.619 179.767 132.646 180.198 132.673C180.629 132.701 180.904 132.728 180.905 132.728L180.937 132.433Z" fill="#234E7A"/>
<path d="M175.68 103.699L177.826 118.811C177.826 118.811 182.914 120.07 185.248 118.366L185.17 104.219L175.68 103.699Z" fill="#234E7A"/>
<path d="M192.199 125.07C191.099 126.067 190.254 127.884 190.799 128.922C191.343 129.958 195.777 134.255 199.472 135.292C203.167 136.329 203.585 134.73 203.078 133.254C202.571 131.779 194.649 122.847 192.199 125.07Z" fill="#234E7A"/>
<path d="M191.927 117.921C191.927 117.921 192.043 123.107 191.927 124.662C191.81 126.218 190.994 126.106 191.422 127.847C191.849 129.588 199.162 135.736 201.884 134.81C204.606 133.884 202.001 130.921 200.716 128.884C199.433 126.848 197.418 124.622 197.205 122.847C196.991 121.073 197.372 118.292 197.372 118.292L191.927 117.921Z" fill="#FFB3A3"/>
<path d="M195.492 132.728C195.492 132.728 195.767 132.701 196.198 132.673C196.629 132.646 197.213 132.619 197.824 132.619C198.819 132.617 199.896 132.697 200.458 132.945L200.627 133.019L200.673 132.847C200.806 132.35 200.855 131.821 200.856 131.302C200.854 129.625 200.337 128.049 200.335 128.041L200.038 128.129C200.038 128.13 200.068 128.223 200.116 128.394C200.259 128.905 200.545 130.087 200.544 131.302C200.544 131.803 200.495 132.309 200.372 132.774L200.522 132.81L200.587 132.676C199.925 132.391 198.839 132.325 197.824 132.322C196.583 132.322 195.462 132.433 195.459 132.433L195.492 132.728Z" fill="#234E7A"/>
<path d="M200.716 103.699L198.571 118.811C198.571 118.811 193.482 120.07 191.149 118.366L191.227 104.219L200.716 103.699Z" fill="#234E7A"/>
<path d="M193.726 141.276C193.726 142.313 190.208 142.436 185.869 142.436C181.531 142.436 178.013 142.955 178.013 141.671C178.013 140.794 181.531 140.56 185.869 140.56C190.208 140.56 193.726 139.794 193.726 141.276Z" fill="#6E6442"/>
<path d="M206.322 139.634C206.322 140.586 203.093 140.7 199.109 140.7C195.126 140.7 191.897 141.175 191.897 139.997C191.897 139.192 195.126 138.977 199.109 138.977C203.093 138.977 206.322 138.274 206.322 139.634Z" fill="#6E6442"/>
<path d="M196.55 130.616C196.55 130.616 193.91 137.668 193.91 138.506C193.91 139.344 193.47 140.88 192.077 141.09C190.684 141.3 180.126 142.696 178.88 141.788C177.634 140.88 181.995 140.449 184.598 138.018C188.411 134.457 188.411 130.616 188.411 130.616H196.55Z" fill="#FFD2B5"/>
<path d="M182.241 139.163C182.233 139.176 181.651 139.631 181.643 140.313V140.464L181.802 140.461H181.835C182.48 140.458 183.525 140.792 184.447 141.208C184.91 141.416 185.344 141.643 185.69 141.856C186.036 142.067 186.295 142.272 186.392 142.4L186.643 142.225C186.495 142.036 186.22 141.831 185.859 141.607C185.318 141.275 184.587 140.917 183.855 140.64C183.122 140.364 182.394 140.166 181.835 140.165L181.795 140.165L181.798 140.313H181.954C181.953 140.061 182.072 139.828 182.198 139.657C182.26 139.572 182.323 139.503 182.37 139.457L182.425 139.404L182.444 139.389L182.241 139.163Z" fill="#6E6442"/>
<path d="M207.001 129.849C207.001 129.849 206.491 136.322 206.491 137.092C206.491 137.861 206.087 139.271 204.808 139.463C203.529 139.656 193.836 140.937 192.692 140.104C191.548 139.271 195.675 138.989 197.942 136.643C199.704 134.819 199.53 129.849 199.53 129.849H207.001Z" fill="#FFD2B5"/>
<path d="M195.779 137.695C195.771 137.706 195.238 138.124 195.229 138.75V138.888L195.375 138.886L195.406 138.885C195.997 138.883 196.956 139.189 197.803 139.572C198.228 139.762 198.627 139.971 198.945 140.167C199.262 140.36 199.5 140.548 199.589 140.666L199.819 140.506C199.684 140.331 199.432 140.144 199.1 139.938C198.603 139.633 197.932 139.305 197.26 139.05C196.587 138.796 195.918 138.614 195.406 138.613L195.369 138.614L195.372 138.75H195.515C195.514 138.518 195.624 138.304 195.739 138.148C195.797 138.07 195.854 138.007 195.897 137.964L195.948 137.916L195.964 137.901L195.779 137.695Z" fill="#6E6442"/>
<path d="M248.383 87.0796C248.383 87.0796 249.374 100.76 238.738 102.487C227.484 104.314 210.372 106.502 210.372 106.502C210.372 106.502 210.58 127.671 207.934 129.449C205.29 131.226 199.223 131.226 199.223 131.226C199.223 131.226 196.578 133.153 194.244 132.856C191.911 132.56 185.843 133.301 186.155 129.893C186.466 126.486 195.275 100.234 197.823 96.1904C202.49 88.783 224.708 84.5906 225.825 83.6724C227.484 82.308 227.005 79.4254 227.005 79.4254L248.383 87.0796Z" fill="#525252"/>
<path d="M199.329 131.334C200.269 130.485 201.15 128.537 202.053 126.064C203.402 122.359 204.762 117.49 206.161 113.547C206.859 111.576 207.569 109.837 208.286 108.598C208.644 107.979 209.005 107.486 209.359 107.153C209.713 106.819 210.052 106.653 210.374 106.65L210.37 106.354C209.787 106.364 209.26 106.744 208.758 107.356C207.879 108.43 207.043 110.271 206.218 112.483C204.982 115.8 203.784 119.948 202.601 123.527C202.01 125.316 201.423 126.964 200.839 128.291C200.257 129.617 199.671 130.623 199.116 131.119L199.329 131.334Z" fill="#363636"/>
<path d="M239.829 84.046C239.716 84.742 239.071 85.9049 238.334 87.0197C237.599 88.1378 236.774 89.2221 236.303 89.8123C235.852 90.3801 234.473 91.5462 232.999 92.6392C231.527 93.7338 229.941 94.7695 229.09 95.1019C228.231 95.4393 226.388 95.8614 224.511 96.2615C222.632 96.6628 220.715 97.045 219.668 97.3185C218.644 97.5871 215.655 98.144 212.748 98.7429C211.294 99.0421 209.859 99.3527 208.695 99.6442C207.528 99.9385 206.644 100.204 206.244 100.446C204.819 101.322 201.838 102.578 201.208 106.481C200.901 108.378 199.722 111.932 198.566 115.198C197.409 118.469 196.277 121.447 196.051 122.254C195.832 123.041 195.047 125.692 194.318 128.143C193.953 129.369 193.602 130.546 193.343 131.416C193.084 132.286 192.915 132.848 192.915 132.85L193.19 132.925C193.19 132.924 195.885 123.908 196.327 122.323C196.543 121.55 197.68 118.554 198.837 115.285C199.994 112.012 201.175 108.463 201.49 106.523C202.106 102.753 204.931 101.577 206.399 100.675C206.722 100.473 207.614 100.195 208.767 99.9074C212.242 99.0366 218.173 97.9917 219.744 97.5806C220.773 97.3114 222.693 96.9282 224.573 96.5269C226.456 96.1245 228.294 95.7069 229.199 95.3531C230.111 94.9944 231.689 93.956 233.175 92.8537C234.661 91.7487 236.036 90.5941 236.53 89.9766C237.005 89.381 237.834 88.2929 238.577 87.1644C239.319 86.0327 239.977 84.8747 240.111 84.0885L239.829 84.046Z" fill="#9E9E9E"/>
<path d="M216.88 25.7976C216.686 27.1183 215.879 29.8758 215.733 30.6789C215.586 31.482 216.356 31.6562 217.125 32.1803C217.456 34.2047 218.299 38.4991 220.168 39.1968C222.039 39.8951 224.642 39.5113 224.642 39.5113L225.722 43.1304L233.073 39.4414L230.726 34.0442C230.726 34.0442 228.674 33.0527 229.883 31.0982C231.094 29.1426 232.743 25.3729 228.453 23.0684C224.165 20.7645 220.059 19.8571 218.775 21.0091C217.492 22.161 216.88 25.7976 216.88 25.7976Z" fill="#FFD2B5"/>
<path d="M217.968 30.0908H217.996C218.276 30.0903 220.588 30.0761 222.218 29.5307L222.272 29.4237L222.159 29.3723C220.575 29.9046 218.267 29.9238 217.996 29.9232H217.969L217.88 30.0062L217.968 30.0908Z" fill="#D18371"/>
<path d="M227.848 32.9124C227.303 32.694 227.459 33.4021 226.37 34.0441C225.281 34.6861 223.206 33.1307 221.936 32.1802C220.665 31.2297 218.954 31.6987 217.125 32.1802C217.456 34.2046 218.299 38.499 220.168 39.1967C222.039 39.895 224.641 39.5112 224.641 39.5112C228.928 38.8304 228.392 33.1307 227.848 32.9124Z" fill="#707070"/>
<path d="M221.033 28.7305H220.878C220.878 29.426 220.664 30.0539 220.327 30.4994C219.989 30.9465 219.539 31.2069 219.054 31.2064C218.569 31.2069 218.119 30.9465 217.78 30.4994C217.444 30.0539 217.229 29.426 217.23 28.7305C217.229 28.0344 217.444 27.4065 217.78 26.9611C218.119 26.5139 218.569 26.2541 219.054 26.2541C219.539 26.2541 219.989 26.5139 220.327 26.9611C220.664 27.4065 220.878 28.0344 220.878 28.7305H221.033H221.189C221.189 27.9771 220.959 27.2919 220.58 26.788C220.202 26.2852 219.662 25.9576 219.054 25.9576C218.446 25.9576 217.906 26.2852 217.528 26.788C217.148 27.2919 216.919 27.9771 216.919 28.7305C216.919 29.4839 217.148 30.1685 217.528 30.6724C217.906 31.1752 218.446 31.5028 219.054 31.5028C219.662 31.5028 220.202 31.1752 220.58 30.6724C220.959 30.1685 221.189 29.4839 221.189 28.7305H221.033Z" fill="white"/>
<path d="M220.862 27.7931L226.853 27.5256L226.838 27.2297L220.848 27.4972" fill="white"/>
<path d="M219.054 28.3952C219.054 28.8833 218.84 29.2786 218.577 29.2786C218.313 29.2786 218.099 28.8833 218.099 28.3952C218.099 27.9071 218.313 27.5113 218.577 27.5113C218.84 27.5113 219.054 27.9071 219.054 28.3952Z" fill="#525252"/>
<path d="M217.818 25.8489L217.834 25.8396C217.923 25.7921 218.353 25.5819 218.972 25.5819C219.398 25.5825 219.913 25.6791 220.483 25.999L220.641 25.7441C220.024 25.3968 219.448 25.2855 218.972 25.286C218.179 25.2866 217.668 25.589 217.653 25.5978L217.818 25.8489Z" fill="#525252"/>
<path d="M217.933 33.472C217.945 33.4753 218.194 33.5299 218.728 33.5299C219.343 33.5299 220.336 33.4578 221.788 33.1521L221.721 32.8628C220.288 33.1641 219.317 33.2335 218.728 33.2335C218.472 33.2335 218.288 33.2203 218.17 33.2078C218.111 33.2012 218.068 33.1952 218.041 33.1903L218.011 33.1854L218.005 33.1838L217.933 33.472Z" fill="#FFB3A3"/>
<path d="M222.137 31.1309L222.186 31.1675C222.416 31.3471 223.397 32.1901 223.952 33.9202L224.062 33.9764L224.121 33.8716C223.472 31.8489 222.251 31.0016 222.241 30.9945L222.118 31.0136L222.137 31.1309Z" fill="#D18371"/>
<path d="M225.048 43.2784C226.272 41.8338 228.989 39.674 231.996 39.18C235.004 38.6859 237.649 39.0533 242.394 44.7847C246.408 49.6332 249.317 58.8335 250.717 65.6481C252.117 72.4631 253.205 87.8201 250.094 89.1042C246.983 90.3888 243.093 85.7957 236.404 83.524C229.714 81.2529 226.499 83.0802 225.048 81.7956C223.596 80.512 226.344 74.5863 226.292 72.3146C226.24 70.0429 225.474 60.4195 225.474 60.4195C225.474 60.4195 221.625 60.1176 220.808 58.673C220.563 58.2385 220.951 57.8951 221.366 54.8339C221.781 51.7723 222.454 46.3401 225.048 43.2784Z" fill="#234E7A"/>
<path d="M228.992 61.2362C229.536 61.2362 230.879 61.1843 231.761 61.1478C232.311 61.1248 232.774 60.747 232.88 60.2317C233.093 59.1993 233.476 57.3862 233.699 56.6229C233.859 56.077 234.342 54.7967 234.815 53.4603C235.289 52.1205 235.754 50.7267 235.886 49.9056C235.968 49.3924 236.001 48.9191 236.001 48.4905C236.001 46.7948 235.489 45.8006 235.481 45.7859L235.202 45.9169L235.22 45.9562C235.31 46.1506 235.689 47.0568 235.689 48.4905C235.689 48.9049 235.658 49.3629 235.578 49.8614C235.456 50.6355 234.993 52.0332 234.52 53.3653C234.047 54.7012 233.566 55.9733 233.4 56.5438C233.17 57.3305 232.788 59.1381 232.575 60.1749C232.496 60.5559 232.155 60.8344 231.747 60.8513C230.868 60.8884 229.52 60.9403 228.992 60.9403V61.2362Z" fill="#16314D"/>
<path d="M226.253 29.9702C226.289 30.8885 224.763 30.3403 224.944 28.6616C225.126 26.9822 225.566 24.2667 224.4 23.2048C223.233 22.1429 220.796 21.1307 219.603 21.9207C217.632 23.1305 217.192 25.18 216.88 25.7975C215.247 24.8836 212.809 23.041 213.095 21.1553C213.432 18.9333 216.051 17.9211 217.995 19.1064C219.94 20.2916 221.47 20.563 224.296 20.4396C227.122 20.3156 230.622 22.2172 231.659 24.2912C232.697 26.3653 232.386 29.106 231.971 30.5134C231.556 31.9209 230.467 33.5751 230.726 34.0441C229.456 33.723 227.55 31.9968 227.342 31.3547C229.884 31.0981 229.235 27.7848 228.12 26.896C227.005 26.0072 226.176 27.9207 226.253 29.9702Z" fill="#707070"/>
<path d="M221.431 59.0802C221.431 59.0802 222.014 59.7473 225.164 59.969C228.314 60.1917 230.259 59.8582 230.376 60.2283C230.492 60.599 226.331 70.7471 223.492 70.7471C220.653 70.7471 196.189 70.7471 196.189 70.7471C196.189 70.7471 198.523 68.5245 200.04 68.5988C201.557 68.6725 203.151 68.6359 203.151 68.6359L219.486 65.3023L221.431 59.0802Z" fill="#FFD2B5"/>
<path d="M247.475 106.502H215.621V105.233C215.621 103.157 217.387 101.475 219.566 101.475H249.861L247.475 106.502Z" fill="#A89866"/>
<path d="M261.789 61.1356C259.806 60.8212 257.925 62.1134 257.407 63.9631L251.683 84.4646C251.033 86.7909 252.875 89.0713 255.403 89.0713C257.148 89.0713 258.674 87.9543 259.122 86.3481L264.89 65.6954C265.468 63.6246 264.064 61.496 261.789 61.1356Z" fill="#A89866"/>
<path d="M243.725 107.934H215.402C214.371 107.934 213.536 107.138 213.536 106.156C213.536 105.174 214.371 104.379 215.402 104.379H243.725C246.218 104.379 248.407 102.776 249.048 100.481L259.45 63.2611C259.716 62.3122 260.74 61.7477 261.734 61.9999C262.73 62.2516 263.324 63.2256 263.059 64.1744L252.656 101.395C251.581 105.244 247.908 107.934 243.725 107.934Z" fill="#6E6442"/>
<path d="M244.262 106.136L250.64 141.451H249.239L239.283 106.136H244.262Z" fill="#6E6442"/>
<path d="M217.975 106.136L211.597 141.451H212.997L222.954 106.136H217.975Z" fill="#6E6442"/>
<path d="M218.988 107.951L240.555 108.133L240.558 107.837L218.991 107.655" fill="#574F34"/>
<path d="M241.438 108.042H244.586V107.746H241.438V108.042Z" fill="#574F34"/>
<path d="M27.6933 106.502H59.5474V105.233C59.5474 103.157 57.781 101.475 55.6018 101.475H25.3066L27.6933 106.502Z" fill="#A89866"/>
<path d="M13.378 61.1356C15.3608 60.8212 17.2425 62.1134 17.7589 63.9631L23.484 84.4646C24.1335 86.7909 22.2922 89.0713 19.7642 89.0713C18.0194 89.0713 16.4929 87.9543 16.0443 86.3481L10.2772 65.6954C9.69891 63.6246 11.1031 61.496 13.378 61.1356Z" fill="#A89866"/>
<path d="M31.4429 107.934H59.765C60.7964 107.934 61.6323 107.138 61.6323 106.156C61.6323 105.174 60.7964 104.379 59.765 104.379H31.4429C28.9497 104.379 26.7605 102.776 26.12 100.481L15.7174 63.2611C15.4523 62.3122 14.4284 61.7477 13.4338 61.9999C12.4372 62.2516 11.844 63.2256 12.1087 64.1744L22.5115 101.395C23.5864 105.244 27.2597 107.934 31.4429 107.934Z" fill="#6E6442"/>
<path d="M30.9061 106.136L24.5288 141.451H25.929L35.8854 106.136H30.9061Z" fill="#6E6442"/>
<path d="M57.1936 106.136L63.5712 141.451H62.1706L52.2144 106.136H57.1936Z" fill="#6E6442"/>
<path d="M56.1769 107.655L34.6099 107.837L34.6126 108.133L56.1797 107.951" fill="#574F34"/>
<path d="M30.5818 108.042H33.7301V107.746H30.5818V108.042Z" fill="#574F34"/>
<path d="M159.533 119.309L158.802 119.567C157.778 119.929 156.688 119.207 156.688 118.167V110.558C156.688 109.496 157.593 108.634 158.708 108.634H159.19C160.839 108.634 162.205 109.854 162.311 111.421L162.547 114.884C162.679 116.831 161.454 118.63 159.533 119.309Z" fill="#E67F53"/>
<path d="M157.442 103.227L157.286 111.791C157.286 111.791 156.898 116.931 157.442 118.524C157.987 120.116 159.348 118.524 159.348 118.524C159.348 118.524 160.709 118.049 161.059 117.675C161.409 117.301 162.382 116.153 162.343 114.375C162.304 112.597 161.215 109.597 161.215 109.597L162.771 103.227H157.442Z" fill="#FFD2B5"/>
<path d="M156.588 115.415C156.589 115.415 156.725 115.523 156.938 115.71C157.579 116.268 158.903 117.545 159.198 118.563L159.336 119.031L159.495 118.57C160.46 115.765 161.422 114.197 162.344 113.61L162.169 113.364C161.132 114.039 160.179 115.651 159.2 118.477L159.348 118.524L159.497 118.483C159.267 117.714 158.589 116.904 157.971 116.269C157.353 115.637 156.791 115.19 156.788 115.187L156.588 115.415Z" fill="#6E6442"/>
<path d="M152.15 119.309L152.881 119.567C153.905 119.929 154.994 119.207 154.994 118.167V110.558C154.994 109.496 154.09 108.634 152.974 108.634H152.493C150.844 108.634 149.478 109.854 149.371 111.421L149.136 114.884C149.003 116.831 150.229 118.63 152.15 119.309Z" fill="#E67F53"/>
<path d="M154.241 103.227L154.396 111.791C154.396 111.791 154.786 116.931 154.241 118.524C153.697 120.116 152.335 118.524 152.335 118.524C152.335 118.524 150.974 118.049 150.624 117.675C150.274 117.301 149.302 116.153 149.34 114.375C149.379 112.597 150.469 109.597 150.469 109.597L148.913 103.227H154.241Z" fill="#FFD2B5"/>
<path d="M154.894 115.187C154.891 115.19 154.329 115.637 153.711 116.269C153.093 116.904 152.416 117.714 152.185 118.483L152.335 118.524L152.482 118.477C151.504 115.651 150.55 114.039 149.513 113.364L149.338 113.61C150.26 114.197 151.222 115.765 152.187 118.57L152.346 119.031L152.484 118.563C152.682 117.888 153.334 117.087 153.938 116.471C154.241 116.162 154.53 115.898 154.743 115.71C154.957 115.523 155.093 115.415 155.094 115.415L154.894 115.187Z" fill="#6E6442"/>
<path d="M116.115 123.041C116.115 123.041 116.076 126.005 116.737 127.375C117.399 128.745 120.899 133.449 119.888 134.634C118.877 135.819 112.459 132.819 111.759 131.264C111.059 129.708 111.798 127.708 111.759 126.079C111.72 124.449 111.456 122.634 111.456 122.634L116.115 123.041Z" fill="#DBCFA5"/>
<path d="M124.166 122.19C124.166 122.19 124.141 126.005 124.801 127.375C125.463 128.745 128.963 133.449 127.951 134.634C126.941 135.819 120.523 132.819 119.823 131.264C119.123 129.708 119.862 127.708 119.823 126.079C119.784 124.449 119.52 122.634 119.52 122.634L124.166 122.19Z" fill="#DBCFA5"/>
<path d="M108.053 103.161L109.931 122.783C109.931 122.783 114.028 125.054 118.125 123.227C121.236 123.869 124.814 122.535 124.814 122.535L128.133 103.227L108.053 103.161Z" fill="#525252"/>
<path d="M118.236 122.836L118.787 103.873L118.501 103.866L117.951 122.828" fill="#9E9E9E"/>
<path d="M87.6917 117.309C87.6917 117.309 87.3099 123.101 87.4142 123.836C87.5186 124.571 88.5678 127.147 89.0132 127.769C89.4593 128.391 91.2142 129.253 90.8736 130.247C90.5325 131.241 85.747 129.657 83.8654 128.695C81.9844 127.731 82.1202 125.75 82.5238 123.711C82.928 121.67 82.5984 117.534 82.5984 117.534L87.6917 117.309Z" fill="#FFD2B5"/>
<path d="M90.8736 130.247C91.2142 129.253 89.4593 128.391 89.0132 127.769C88.6509 127.263 87.8878 125.46 87.5604 124.412C84.8423 125.183 83.3144 124.234 82.5663 123.455C82.5525 123.541 82.5399 123.63 82.5238 123.711C82.1202 125.75 81.9844 127.731 83.8654 128.695C85.747 129.657 90.5325 131.241 90.8736 130.247Z" fill="#556F8A"/>
<path d="M80.9399 101.708L81.883 118.433C81.883 118.433 86.1892 119.795 88.6883 117.883C89.7507 111.707 93.4354 96.0993 93.4354 96.0993L80.9399 101.708Z" fill="#556F8A"/>
<path d="M73.77 117.309C73.77 117.309 74.1518 123.101 74.0469 123.836C73.9425 124.571 72.8934 127.147 72.4473 127.769C72.0019 128.391 70.2469 129.253 70.5875 130.247C70.9286 131.241 75.7141 129.657 77.5951 128.695C79.4768 127.731 79.3409 125.75 78.9373 123.711C78.5337 121.67 78.8627 117.534 78.8627 117.534L73.77 117.309Z" fill="#FFD2B5"/>
<path d="M70.5875 130.247C70.2469 129.253 72.0019 128.391 72.4473 127.769C72.8108 127.263 73.5733 125.46 73.9007 124.412C76.6194 125.183 78.1467 124.234 78.8948 123.455C78.9086 123.541 78.9212 123.63 78.9373 123.711C79.3409 125.75 79.4768 127.731 77.5951 128.695C75.7141 129.657 70.9286 131.241 70.5875 130.247Z" fill="#556F8A"/>
<path d="M80.5215 101.708L79.5784 118.433C79.5784 118.433 75.2728 119.795 72.7731 117.883C71.7108 111.707 68.0266 96.0993 68.0266 96.0993L80.5215 101.708Z" fill="#556F8A"/>
<path d="M96.7207 70.3016C95.9949 70.2028 95.9427 68.1037 96.7729 65.5486C97.6025 62.9931 100.247 61.0178 99.0541 56.475C99.0541 56.475 97.2912 55.9814 95.476 55.9814C93.6609 55.9814 91.8979 56.475 91.8979 56.475C90.7054 61.0178 93.3502 62.9931 94.1798 65.5486C95.0093 68.1037 94.9577 70.2028 94.2319 70.3016C93.5055 70.4005 92.3457 70.8077 92.9351 70.8077C93.5244 70.8077 95.476 70.8077 95.476 70.8077C95.476 70.8077 97.4282 70.8077 98.017 70.8077C98.6063 70.8077 97.4465 70.4005 96.7207 70.3016Z" fill="#FFDFD1"/>
<path d="M95.476 57.6351C93.7652 57.6351 92.2092 58.0549 92.2092 58.0549C92.2092 58.0549 92.2734 59.6769 92.6237 60.7846C93.1426 62.4252 94.6722 63.9561 95.476 63.9561C96.2798 63.9561 97.8094 62.4252 98.3282 60.7846C98.6785 59.6769 98.7433 58.0549 98.7433 58.0549C98.7433 58.0549 97.1873 57.6351 95.476 57.6351Z" fill="#E67F53"/>
<path d="M95.8634 61.9672L97.2261 54.4265C97.2743 54.1601 97.444 53.9281 97.6894 53.7932L101.005 51.9681L100.849 51.7115L97.534 53.5366C97.2084 53.7157 96.983 54.0231 96.9194 54.3763L95.5566 61.9169L95.8634 61.9672Z" fill="#A85D3C"/>
<path d="M139.873 47.4869C139.147 47.3876 139.095 45.289 139.925 42.7334C140.755 40.1783 143.399 38.2031 142.207 33.6597C142.207 33.6597 140.444 33.1662 138.629 33.1662C136.814 33.1662 135.05 33.6597 135.05 33.6597C133.857 38.2031 136.503 40.1783 137.332 42.7334C138.162 45.289 138.11 47.3876 137.384 47.4869C136.658 47.5852 135.499 47.993 136.088 47.993C136.676 47.993 138.629 47.993 138.629 47.993C138.629 47.993 140.58 47.993 141.17 47.993C141.759 47.993 140.599 47.5852 139.873 47.4869Z" fill="#FFDFD1"/>
<path d="M138.628 34.8205C136.917 34.8205 135.361 35.2403 135.361 35.2403C135.361 35.2403 135.426 36.8618 135.776 37.9701C136.294 39.6106 137.825 41.1415 138.628 41.1415C139.432 41.1415 140.962 39.6106 141.48 37.9701C141.83 36.8618 141.895 35.2403 141.895 35.2403C141.895 35.2403 140.34 34.8205 138.628 34.8205Z" fill="#E67F53"/>
<path d="M139.016 39.1521L140.381 31.6016L140.379 31.6115C140.427 31.3456 140.596 31.1136 140.842 30.9782L144.158 29.153L144.003 28.8965L140.686 30.7216C140.361 30.9006 140.136 31.2085 140.072 31.5612L138.709 39.1019L139.016 39.1521Z" fill="#A85D3C"/>
<path d="M108.827 25.8221C107.229 27.3928 106.658 28.0441 106.425 30.5997C106.192 33.1553 107.086 35.5995 106.697 37.8215C106.309 40.0441 106.192 41.3401 108.564 41.5623C110.936 41.7845 114.268 41.838 116.795 40.34C119.321 38.8424 120.154 36.5767 118.326 32.5329C116.498 28.4885 110.334 24.341 108.827 25.8221Z" fill="#453933"/>
<path d="M116.794 40.3399C119.686 40.3864 121.435 41.178 123.474 42.188C125.513 43.198 128.655 44.6671 129.867 47.1867C131.08 49.7057 133.891 58.68 134.828 61.1995C135.764 63.7185 137.363 70.7471 131.576 70.7471C125.789 70.7471 104.405 70.7471 102.807 70.7471C101.208 70.7471 100.024 68.2324 100.313 66.3429C100.602 64.4534 102.774 58.2831 103.303 55.9197C103.831 53.5568 104.075 49.6232 105.783 46.8717C106.737 45.3348 107.827 44.113 108.447 43.5747C109.614 42.5625 112.043 40.2641 116.794 40.3399Z" fill="#556F8A"/>
<path d="M113.576 40.816C114.714 41.3014 116.524 41.0066 117.723 40.661C118.922 40.3154 119.729 39.3791 120.193 39.723C120.657 40.067 120.919 41.3647 121.204 41.6792C121.489 41.9942 121.749 42.3152 121.723 42.7596C121.697 43.204 117.27 68.364 117.27 68.364C117.27 68.364 115.451 61.1482 114.151 54.6362C113.451 51.1241 112.997 43.5256 112.848 43.1794C112.699 42.8339 113.114 42.8338 113.089 42.3403C113.063 41.8462 112.898 40.5272 113.576 40.816Z" fill="#88A7C9"/>
<path d="M111.609 64.757C111.612 64.7537 111.851 64.4223 112.093 63.9681C112.333 63.5133 112.58 62.94 112.582 62.423C112.582 62.2893 112.565 62.1588 112.524 62.0354C112.36 61.5304 112.034 61.3453 111.788 61.2006C111.663 61.1253 111.558 61.056 111.468 60.9506C111.378 60.8447 111.299 60.6989 111.244 60.4565C111.218 60.3397 111.205 60.1977 111.205 60.0389C111.205 59.4907 111.356 58.7521 111.522 58.0789C111.688 57.403 111.865 56.7987 111.914 56.4711C111.942 56.2757 111.955 56.0797 111.955 55.8853C111.954 55.1172 111.758 54.3698 111.566 53.7272C111.373 53.0873 111.187 52.5403 111.19 52.2264C111.19 52.1679 111.197 52.1193 111.207 52.0806L110.906 52.0063C110.887 52.0762 110.879 52.1494 110.879 52.2264C110.882 52.632 111.078 53.1708 111.268 53.808C111.457 54.4429 111.644 55.1652 111.644 55.8853C111.644 56.0677 111.632 56.25 111.605 56.4302C111.564 56.7157 111.386 57.3326 111.219 58.0118C111.053 58.6937 110.894 59.4427 110.894 60.0389C110.894 60.2125 110.907 60.3735 110.94 60.5188C111.002 60.795 111.102 60.9916 111.226 61.1373C111.414 61.3562 111.635 61.4485 111.805 61.5643C111.976 61.6816 112.117 61.8072 112.227 62.1255C112.257 62.2134 112.271 62.3138 112.271 62.423C112.273 62.8483 112.047 63.4003 111.815 63.8343C111.699 64.0521 111.583 64.2416 111.496 64.3764C111.409 64.5107 111.353 64.5888 111.352 64.5888L111.609 64.757Z" fill="#2F4F6E"/>
<path d="M123.356 55.3329C123.384 56.0776 123.637 56.807 123.897 57.5009C124.157 58.1942 124.425 58.8543 124.498 59.4439C124.536 59.7437 124.546 60.0532 124.546 60.3709C124.546 60.6887 124.536 61.0146 124.536 61.346C124.536 62.0077 124.574 62.6934 124.816 63.3808C125.275 64.6801 125.276 65.7611 125.907 67.3722L126.198 67.2685C125.584 65.7049 125.586 64.6408 125.111 63.2863C124.886 62.6475 124.847 61.9973 124.847 61.346C124.847 61.0201 124.857 60.6947 124.857 60.3709C124.857 60.0477 124.847 59.7262 124.807 59.4084C124.725 58.7637 124.447 58.0905 124.189 57.401C123.931 56.7126 123.691 56.0094 123.667 55.3226L123.356 55.3329Z" fill="#2F4F6E"/>
<path d="M109.38 28.0069C108.544 28.5523 107.436 30.0068 107.63 31.4885C107.824 32.9702 108.472 33.8961 108.498 35.1551C108.524 36.4146 108.914 38.4515 110.353 39.3774C111.792 40.3033 113.386 40.0719 113.386 40.0719C113.386 40.0719 113.62 40.9699 113.814 41.7845C114.009 42.5991 119.998 42.1918 119.726 40.4513C119.454 38.7103 117.315 33.1902 117.237 31.1909C117.159 29.1922 112.051 26.2665 109.38 28.0069Z" fill="#FFD2B5"/>
<path d="M110.308 33.4293C110.308 33.4299 110.374 33.6128 110.44 33.8393C110.506 34.0648 110.57 34.3367 110.569 34.4923L110.56 34.5775L110.554 34.59L110.566 34.5988L110.56 34.5862L110.554 34.59L110.566 34.5988L110.56 34.5862C110.494 34.6184 110.392 34.6419 110.3 34.6763L110.17 34.7478C110.13 34.78 110.098 34.8346 110.099 34.8947C110.099 34.9656 110.133 35.0317 110.192 35.1065C110.421 35.3942 110.766 35.4117 110.862 35.4122L110.89 35.4117L110.972 35.3221L110.879 35.2441L110.862 35.2446C110.787 35.2452 110.504 35.2261 110.333 35.006C110.284 34.9454 110.274 34.9067 110.275 34.8947L110.288 34.8723C110.327 34.8308 110.501 34.7986 110.639 34.7363L110.728 34.6266L110.746 34.4923C110.743 34.1145 110.476 33.3802 110.475 33.3753L110.364 33.3229L110.308 33.4293Z" fill="#D18371"/>
<path d="M109.775 36.6691C109.781 36.6702 110.026 36.7231 110.437 36.7231C111.198 36.7231 112.53 36.5413 113.945 35.5182L113.962 35.4009L113.839 35.3845C112.458 36.3819 111.17 36.5544 110.437 36.555C110.24 36.555 110.083 36.5424 109.976 36.5299C109.869 36.5173 109.815 36.5053 109.815 36.5053L109.709 36.5686L109.775 36.6691Z" fill="#D18371"/>
<path d="M113.394 40.1555C114.403 40.0703 115.695 39.3579 116.114 38.8616L116.099 38.7437L115.975 38.7574C115.616 39.1996 114.315 39.9191 113.379 39.9879L113.299 40.0785L113.394 40.1555Z" fill="#D18371"/>
<path d="M111.922 33.3441C111.989 33.6553 111.911 33.9327 111.748 33.9644C111.585 33.9966 111.399 33.7705 111.332 33.4599C111.265 33.1492 111.343 32.8719 111.506 32.8397C111.669 32.808 111.856 33.0335 111.922 33.3441Z" fill="#453933"/>
<path d="M109.771 33.9097C109.838 34.2203 109.76 34.4982 109.597 34.5299C109.434 34.5615 109.247 34.3355 109.181 34.0249C109.114 33.7142 109.192 33.4369 109.355 33.4052C109.518 33.373 109.704 33.599 109.771 33.9097Z" fill="#453933"/>
<path d="M110.742 32.0297L110.752 32.0226C110.812 31.9805 111.119 31.7883 111.564 31.7889C111.716 31.7889 111.887 31.8113 112.073 31.8702C112.154 31.8959 112.243 31.8539 112.27 31.7763C112.297 31.6988 112.253 31.6147 112.171 31.5891C111.953 31.5197 111.749 31.4924 111.564 31.4924C110.946 31.4941 110.561 31.7883 110.546 31.7993C110.479 31.8506 110.469 31.9439 110.523 32.0073C110.577 32.0711 110.675 32.081 110.742 32.0297Z" fill="#453933"/>
<path d="M109.322 32.1562C109.317 32.1557 109.274 32.1513 109.208 32.1513C109.094 32.1513 108.911 32.1638 108.718 32.2386C108.527 32.3123 108.323 32.457 108.208 32.706C108.173 32.7808 108.208 32.8687 108.287 32.902C108.365 32.9353 108.457 32.9014 108.492 32.8266C108.573 32.6563 108.699 32.5678 108.836 32.5127C108.973 32.4587 109.121 32.4472 109.208 32.4472L109.267 32.4488L109.284 32.4505C109.369 32.4603 109.447 32.4024 109.458 32.3211C109.467 32.2397 109.407 32.166 109.322 32.1562Z" fill="#453933"/>
<path d="M108.875 28.3035C108.875 28.3035 109.303 29.0443 110.781 29.8589C112.259 30.674 114.087 30.7848 114.67 31.3777C115.254 31.97 115.526 33.3404 116.031 35.3036C116.411 36.7782 116.497 38.7846 117.723 39.4883C118.948 40.192 121.67 40.4142 123.654 39.2661C124.817 38.593 126.144 37.0179 124.704 35.0443C123.732 33.7105 120.232 31.6365 119.454 29.748C118.676 27.8591 116.615 23.9703 111.831 24.3775C107.047 24.7854 108.221 27.5981 108.875 28.3035Z" fill="#453933"/>
<path d="M113.605 35.2222L114.109 35.7594L114.233 35.766L114.241 35.6475L113.737 35.1103L113.613 35.1038L113.605 35.2222Z" fill="#D18371"/>
<path d="M110.003 63.8949C110.147 63.8185 125.326 66.784 127.038 66.784C128.749 66.784 130.383 66.4139 131.744 66.784C133.105 67.1542 134.116 69.2654 133.65 70.0062C133.183 70.7471 129.41 70.7471 129.41 70.7471C129.41 70.7471 111.714 70.7471 109.653 70.7471C107.591 70.7471 107.708 65.1173 110.003 63.8949Z" fill="#FFB3A3"/>
<path d="M135.297 50.2982C135.81 48.71 135.866 46.8183 136.009 46.0955C136.151 45.3727 137.243 42.6609 137.527 43.5192C137.812 44.3779 139.9 41.5761 141.277 42.3896C142.653 43.2031 141.941 46.0955 141.277 47.0443C140.612 47.9932 139.236 48.2443 138.999 49.7233C138.761 51.2017 137.717 63.6745 137.338 66.1602C136.957 68.6453 136.424 70.5955 132.917 70.5955C129.41 70.5955 130.457 65.8894 131.263 62.4996C132.07 59.1103 134.971 51.3087 135.297 50.2982Z" fill="#FFD2B5"/>
<path d="M112.687 42.5637C112.689 42.5653 112.967 42.9611 113.347 43.417C113.729 43.8734 114.203 44.3888 114.635 44.6443C115.391 45.0909 116.035 45.1995 117.252 45.1974H117.271C117.765 45.1941 118.464 44.9659 119.061 44.742C119.655 44.5176 120.133 44.2944 120.136 44.2933L119.999 44.0274C119.999 44.0274 119.882 44.0814 119.691 44.1639C119.405 44.2878 118.955 44.474 118.496 44.6279C118.039 44.7819 117.567 44.902 117.271 44.9009H117.252C116.042 44.8987 115.505 44.8043 114.797 44.3921C114.436 44.1813 113.96 43.678 113.591 43.233C113.405 43.0097 113.243 42.8006 113.128 42.6478C113.013 42.4944 112.946 42.3988 112.946 42.3988L112.687 42.5637Z" fill="#556F8A"/>
<path d="M130.392 66.9468C130.392 66.95 130.341 67.2208 130.341 67.6156C130.341 68.0851 130.412 68.7315 130.732 69.3146C131.051 69.8976 131.629 70.4141 132.611 70.5997L132.716 70.5337L132.646 70.4349C131.713 70.2558 131.19 69.7824 130.888 69.2365C130.588 68.6911 130.517 68.0692 130.517 67.6156C130.517 67.425 130.529 67.2645 130.542 67.1515C130.554 67.039 130.566 66.9763 130.566 66.9763L130.494 66.8785L130.392 66.9468Z" fill="#D18371"/>
<path d="M138.675 43.3237C138.448 43.4285 138.189 43.5535 137.982 43.69C137.778 43.8287 137.609 43.9701 137.602 44.1639C137.602 44.2196 137.62 44.2763 137.655 44.326C137.787 44.5089 138.033 44.5821 138.242 44.6247C138.452 44.6656 138.631 44.6678 138.635 44.6678L138.636 44.5837L138.578 44.5204C138.576 44.522 138.392 44.676 138.205 44.8752C138.02 45.0778 137.823 45.3098 137.817 45.5326C137.817 45.5844 137.83 45.6379 137.862 45.6838C137.945 45.8017 138.086 45.8323 138.214 45.8312C138.44 45.8301 138.697 45.7498 138.829 45.752L138.885 45.7591L138.889 45.7613L138.889 45.7624L138.892 45.7799C138.897 45.8306 138.824 45.9589 138.738 46.0872C138.656 46.2199 138.563 46.3569 138.56 46.5076C138.558 46.5797 138.589 46.6572 138.655 46.7118C138.839 46.8674 139.08 46.8925 139.242 46.8931C139.35 46.8931 139.425 46.8805 139.429 46.88L139.414 46.7975L139.37 46.7244C139.363 46.7298 138.367 47.2567 138.206 48.3415L138.281 48.4359L138.381 48.3644C138.452 47.8687 138.721 47.4952 138.974 47.2447C139.1 47.1191 139.222 47.0252 139.312 46.9624L139.419 46.8925L139.457 46.8707L139.497 46.7691L139.398 46.7145L139.356 46.72L139.242 46.7255C139.1 46.726 138.9 46.6976 138.773 46.5868L138.736 46.5076C138.733 46.4345 138.806 46.3029 138.889 46.1746C138.971 46.0425 139.064 45.9191 139.068 45.7799L139.057 45.7089L138.959 45.6063L138.829 45.5839C138.646 45.5861 138.399 45.6647 138.214 45.6636C138.107 45.6625 138.044 45.6401 138.009 45.5904L137.993 45.5326C137.986 45.4163 138.155 45.1739 138.336 44.9872C138.425 44.8916 138.515 44.8064 138.583 44.7453C138.65 44.6836 138.694 44.647 138.694 44.647L138.719 44.5548L138.637 44.4996C138.637 44.4996 138.597 44.4991 138.53 44.4942C138.431 44.4865 138.276 44.4674 138.132 44.4254C137.988 44.3839 137.859 44.3167 137.802 44.2327L137.778 44.1639C137.771 44.0902 137.886 43.9531 138.082 43.8281C138.274 43.7014 138.527 43.5781 138.752 43.4749L138.794 43.363L138.675 43.3237Z" fill="#D18371"/>
<path d="M159.171 44.8326C159.531 44.2189 160.151 44.1381 160.61 44.8326C161.071 45.527 159.805 48.3539 158.931 48.2005C158.056 48.0471 158.848 45.3802 159.171 44.8326Z" fill="#D18371"/>
<path d="M148.487 44.8326C148.126 44.2189 147.507 44.1381 147.047 44.8326C146.586 45.527 147.852 48.3539 148.727 48.2005C149.601 48.0471 148.809 45.3802 148.487 44.8326Z" fill="#D18371"/>
<path d="M154.526 55.0308C157.686 54.8829 159.559 55.2056 159.559 55.2056C159.559 55.2056 163.078 55.7717 166.865 59.969C170.65 64.1668 171.791 66.142 171.791 66.142C171.791 66.142 166.865 67.3267 166.761 68.216C166.656 69.1049 166.761 70.7471 166.761 70.7471H137.565C137.565 70.7471 140.472 64.3436 140.991 62.9247C141.51 61.5063 142.858 59.1358 143.791 57.9997C144.725 56.8641 146.899 56.167 149.803 55.3273C152.707 54.4876 154.526 55.0308 154.526 55.0308Z" fill="#617E9C"/>
<path d="M148.437 46.1407C148.698 47.9314 148.898 50.0628 150.002 51.1149C151.107 52.1669 151.567 52.364 151.567 52.364C151.567 52.364 151.797 53.6786 151.728 54.1607C151.659 54.6428 149.036 56.0235 149.082 56.3079C149.128 56.5929 151.014 57.075 154.696 56.7687C158.378 56.4619 159.667 55.9356 159.621 55.8259C159.575 55.7167 157.389 54.7088 157.205 54.2923C157.021 53.8757 157.113 51.5036 157.113 51.5036C157.113 51.5036 158.148 50.5891 158.631 48.9016C159.114 47.2146 159.137 45.1329 159.137 45.1329C159.137 45.1329 159.506 42.2842 158.815 41.7584C158.125 41.2321 154.88 41.1229 152.878 41.0132C150.876 40.9034 147.77 41.5613 148.437 46.1407Z" fill="#FFD2B5"/>
<path d="M153.683 45.8673C153.683 45.8678 153.712 46.476 153.712 46.9078C153.712 47.0159 153.711 47.1126 153.706 47.1841L153.698 47.2698L153.693 47.2911L153.693 47.2927L153.735 47.3086L153.697 47.2845L153.693 47.2927L153.735 47.3086L153.697 47.2845H153.698L153.699 47.2851L153.697 47.2834L153.698 47.2845L153.699 47.2851L153.697 47.2834C153.681 47.2965 153.621 47.3249 153.549 47.3555C153.439 47.4025 153.297 47.4603 153.177 47.5389C153.059 47.6159 152.948 47.7213 152.946 47.8736C152.945 47.9784 153.001 48.068 153.076 48.1346C153.303 48.3333 153.719 48.4174 153.983 48.4207L154.072 48.3366L153.983 48.2525C153.836 48.253 153.604 48.2143 153.421 48.1411C153.329 48.1051 153.249 48.0603 153.197 48.0128C153.145 47.9648 153.122 47.9206 153.122 47.8736C153.122 47.8294 153.146 47.7846 153.2 47.7355C153.281 47.6623 153.419 47.5952 153.545 47.5417C153.608 47.5144 153.668 47.4898 153.717 47.4658L153.845 47.3779V47.3773L153.872 47.2949C153.885 47.2114 153.889 47.0732 153.889 46.9078C153.889 46.47 153.859 45.8602 153.859 45.8591L153.767 45.7794L153.683 45.8673Z" fill="#D18371"/>
<path d="M155.715 46.4016C155.715 46.787 155.569 47.0999 155.389 47.0999C155.208 47.0999 155.062 46.787 155.062 46.4016C155.062 46.0162 155.208 45.7033 155.389 45.7033C155.569 45.7033 155.715 46.0162 155.715 46.4016Z" fill="#453933"/>
<path d="M152.48 46.4016C152.48 46.787 152.334 47.0999 152.153 47.0999C151.973 47.0999 151.827 46.787 151.827 46.4016C151.827 46.0162 151.973 45.7033 152.153 45.7033C152.334 45.7033 152.48 46.0162 152.48 46.4016Z" fill="#453933"/>
<path d="M154.514 50.172C154.514 50.6125 154.22 50.9696 153.857 50.9696C153.494 50.9696 153.199 50.6125 153.199 50.172C153.199 49.7308 153.494 49.3732 153.857 49.3732C154.22 49.3732 154.514 49.7308 154.514 50.172Z" fill="white"/>
<path d="M154.613 44.897L154.626 44.885C154.696 44.8222 155.033 44.5607 155.444 44.5634C155.698 44.565 155.988 44.6529 156.308 44.9641L156.506 44.7812C156.147 44.4269 155.771 44.2991 155.444 44.3008C154.836 44.3046 154.43 44.7031 154.417 44.7108L154.613 44.897Z" fill="#453933"/>
<path d="M152.87 44.7108C152.858 44.7031 152.451 44.3046 151.844 44.3008C151.516 44.2991 151.14 44.4269 150.781 44.7812L150.979 44.9641C151.299 44.6529 151.59 44.565 151.844 44.5634C152.079 44.5634 152.289 44.6458 152.439 44.731C152.515 44.7736 152.575 44.8162 152.615 44.8478L152.661 44.885L152.674 44.897L152.87 44.7108Z" fill="#453933"/>
<path d="M151.523 52.437C152.04 52.7111 152.769 52.9175 153.595 52.9175C154.568 52.918 155.677 52.6298 156.719 51.8267L156.732 51.7082L156.608 51.6956C155.597 52.4742 154.532 52.7493 153.595 52.7499C152.8 52.7499 152.097 52.5495 151.609 52.2902L151.489 52.3229L151.523 52.437Z" fill="#D18371"/>
<path d="M161.614 60.5685C161.634 61.0074 161.795 61.3322 161.968 61.6369C162.141 61.9426 162.325 62.2331 162.435 62.6365C162.669 63.4833 162.839 64.3098 163.232 64.9186C163.413 65.1976 163.596 65.5322 163.733 65.7959C163.87 66.0602 163.961 66.2518 163.961 66.2523L164.245 66.1306C164.243 66.1278 163.875 65.3471 163.496 64.7624C163.147 64.2274 162.97 63.4183 162.736 62.5617C162.614 62.113 162.409 61.7919 162.242 61.496C162.074 61.1985 161.943 60.931 161.925 60.5554L161.614 60.5685Z" fill="#2F4F6E"/>
<path d="M146.952 63.7278C146.952 63.73 146.757 65.1719 146.717 65.8871C146.699 66.2288 146.621 66.8496 146.539 67.4021C146.497 67.6783 146.455 67.9388 146.419 68.1408C146.401 68.2412 146.383 68.3275 146.369 68.3924C146.355 68.4558 146.341 68.5044 146.339 68.5071L146.34 68.5065C146.301 68.6015 146.295 68.6998 146.294 68.7975C146.295 68.9908 146.331 69.1764 146.331 69.1808L146.637 69.1278C146.637 69.1278 146.629 69.0874 146.621 69.0235C146.613 68.9602 146.605 68.8761 146.605 68.7975C146.604 68.7195 146.616 68.6452 146.629 68.6168V68.6163C146.647 68.5726 146.657 68.5251 146.673 68.453C146.781 67.965 146.993 66.5351 147.028 65.9029C147.047 65.5579 147.105 65.0212 147.159 64.5735C147.212 64.1258 147.261 63.7666 147.261 63.7655L146.952 63.7278Z" fill="#2F4F6E"/>
<path d="M153.408 68.1909C153.408 68.1909 158.191 66.8949 161.497 65.9689C164.803 65.043 168.653 64.4135 170.559 65.1915C172.465 65.9689 175.382 70.7471 171.181 70.7471C166.981 70.7471 155.935 70.7471 153.408 70.7471C150.879 70.7471 147.574 70.7471 145.59 70.7471C143.606 70.7471 143.335 70.0428 145.24 68.9689C147.146 67.895 149.246 67.211 150.879 67.7935C152.513 68.3766 152.709 68.3809 153.408 68.1909Z" fill="#FFB3A3"/>
<path d="M149.381 42.7044C150.687 41.7888 153.454 42.2261 155.076 42.2605C156.698 42.2949 157.63 41.898 158.252 42.7044C158.873 43.5113 158.062 45.6367 158.476 46.0969C158.89 46.5571 159.144 46.8197 159.177 46.0969C159.212 45.3735 159.667 43.2482 160.08 42.4926C160.495 41.7364 162.359 41.2762 162.601 39.7645C162.842 38.2522 160.08 37.3317 158.873 37.365C157.665 37.3978 157.078 36.6089 155.697 36.313C154.317 36.0171 153.316 36.7967 152.626 36.9326C151.935 37.0691 150.14 36.8038 149.242 37.5932C148.346 38.3838 148.483 39.0083 147.448 39.5013C146.413 39.9943 145.998 41.2074 146.413 42.2605C146.826 43.3137 147.931 46.5348 148.448 46.8967C148.967 47.2581 148.65 43.2176 149.381 42.7044Z" fill="#453933"/>
<path d="M213.318 81.0055H62.822V73.5615H213.318V81.0055Z" fill="#544C32"/>
<path d="M216.536 75.0803L221.243 144.411H216.536L210.884 75.0803H216.536Z" fill="#A89866"/>
<path d="M59.605 75.0803L54.8975 144.411H59.605L65.2567 75.0803H59.605Z" fill="#A89866"/>
<path d="M221.755 76.3763H54.3865V70.7471H221.755V76.3763Z" fill="#6E6442"/>
<path d="M209.497 77.2837C209.497 75.4875 209.583 73.1542 209.497 70.7471H138.071H66.6444C66.5584 73.1542 66.6444 75.4875 66.6444 77.2837C66.6444 79.0799 65.9587 82.4129 66.2155 85.302C66.473 88.1907 66.2436 89.6718 66.4013 91.8938C66.4403 92.4496 66.4603 93.476 66.4678 94.7038C66.4959 99.4105 70.6106 103.311 76.0181 103.887L76.0766 103.894C77.9628 104.116 83.622 104.561 85.166 104.561C86.7088 104.561 102.829 104.338 104.716 104.561C106.602 104.783 119.722 104.635 121.693 104.561C123.665 104.487 136.013 104.721 138.071 104.678C140.129 104.721 152.476 104.487 154.449 104.561C156.421 104.635 169.54 104.783 171.426 104.561C173.313 104.338 189.433 104.561 190.976 104.561C192.52 104.561 198.179 104.116 200.066 103.894L200.124 103.887C205.531 103.311 209.646 99.4105 209.674 94.7038C209.681 93.476 209.701 92.4496 209.741 91.8938C209.898 89.6718 209.669 88.1907 209.926 85.302C210.183 82.4129 209.497 79.0799 209.497 77.2837Z" fill="#FFA300"/>
<path d="M69.9702 70.7361C69.9432 71.4672 69.934 72.19 69.934 72.8888C69.934 74.2853 69.9702 75.5874 69.9702 76.6657C69.9707 77.3203 69.8566 78.25 69.7408 79.2955C69.625 80.3421 69.5086 81.5088 69.5081 82.664C69.5081 83.0975 69.5247 83.5288 69.5642 83.9524C69.6686 85.0706 69.6875 85.9506 69.6875 86.757C69.6875 87.226 69.6812 87.6698 69.6812 88.1202C69.6812 88.6891 69.6915 89.2683 69.7397 89.9164C69.7764 90.4023 69.7953 91.332 69.8022 92.4409C69.8159 94.6585 70.8416 96.6851 72.5157 98.2126C74.1898 99.7418 76.5129 100.781 79.1444 101.049L79.1983 101.055H79.1965C81.0077 101.257 86.3579 101.659 87.8594 101.66C88.842 101.66 95.9626 101.571 101.133 101.571C102.425 101.571 103.595 101.576 104.514 101.59C105.431 101.604 106.109 101.628 106.377 101.658C106.758 101.7 107.516 101.726 108.534 101.743C109.549 101.76 110.812 101.766 112.165 101.766C116.354 101.766 121.39 101.701 122.538 101.66C122.788 101.651 123.234 101.647 123.814 101.647C127.082 101.647 134.65 101.771 137.362 101.771C137.663 101.771 137.905 101.769 138.077 101.766L138.071 101.47L138.064 101.766C138.236 101.769 138.478 101.771 138.779 101.771C141.491 101.771 149.059 101.647 152.326 101.647C152.907 101.647 153.353 101.651 153.602 101.66C154.751 101.701 159.787 101.766 163.975 101.766C165.328 101.766 166.592 101.76 167.607 101.743C168.624 101.726 169.383 101.7 169.764 101.658C170.031 101.628 170.709 101.604 171.626 101.59C172.546 101.576 173.715 101.571 175.008 101.571C180.178 101.571 187.298 101.66 188.282 101.66C189.783 101.659 195.133 101.257 196.944 101.055H196.942L196.997 101.049L196.996 101.049C199.628 100.781 201.951 99.7418 203.625 98.2126C205.299 96.6851 206.325 94.6585 206.338 92.4409C206.345 91.332 206.364 90.4023 206.401 89.9164C206.449 89.2694 206.459 88.6913 206.459 88.123C206.459 87.6704 206.452 87.2243 206.452 86.7532C206.452 85.9479 206.472 85.0689 206.576 83.9524C206.616 83.5288 206.632 83.0964 206.632 82.6635C206.632 81.5082 206.515 80.3416 206.4 79.295C206.284 78.2495 206.17 77.3203 206.171 76.6657C206.171 75.5874 206.207 74.2853 206.207 72.8888C206.207 72.19 206.198 71.4672 206.17 70.7361L205.549 70.7574C205.576 71.4792 205.584 72.1949 205.584 72.8888C205.584 74.2761 205.548 75.5754 205.548 76.6657C205.549 77.3803 205.666 78.3139 205.781 79.3572C205.896 80.3989 206.01 81.5459 206.01 82.6635C206.01 83.0822 205.994 83.4971 205.956 83.9C205.85 85.0373 205.83 85.9392 205.83 86.7532C205.83 87.2298 205.837 87.6764 205.837 88.123C205.837 88.6842 205.826 89.2465 205.78 89.8743C205.741 90.393 205.723 91.3222 205.716 92.437C205.702 94.4805 204.762 96.3515 203.194 97.7851C201.626 99.2177 199.43 100.206 196.93 100.46L196.873 100.466H196.872L196.871 100.466C195.102 100.666 189.71 101.068 188.282 101.067C187.312 101.067 180.181 100.978 175.008 100.978C173.714 100.978 172.541 100.984 171.616 100.998C170.689 101.012 170.02 101.033 169.691 101.07C169.368 101.106 168.603 101.134 167.596 101.15C166.587 101.167 165.326 101.174 163.975 101.174C159.797 101.174 154.751 101.108 153.626 101.068C153.358 101.058 152.911 101.054 152.326 101.054C149.048 101.054 141.479 101.179 138.779 101.179C138.48 101.179 138.241 101.177 138.077 101.174H138.071H138.064C137.9 101.177 137.661 101.179 137.362 101.179C134.662 101.179 127.092 101.054 123.814 101.054C123.23 101.054 122.783 101.058 122.515 101.068C121.39 101.108 116.344 101.174 112.165 101.174C110.814 101.174 109.554 101.167 108.545 101.15C107.538 101.134 106.772 101.106 106.45 101.07C106.121 101.033 105.452 101.012 104.524 100.998C103.599 100.984 102.427 100.978 101.133 100.978C95.9592 100.978 88.8289 101.067 87.8594 101.067C86.4307 101.068 81.0386 100.666 79.2694 100.466L79.212 100.46H79.2103C76.7101 100.206 74.5143 99.2177 72.9462 97.7851C71.3782 96.3515 70.438 94.4805 70.4242 92.437C70.4173 91.3222 70.399 90.393 70.3606 89.8743C70.3141 89.2449 70.3032 88.682 70.3032 88.1202C70.3032 87.6753 70.3101 87.2309 70.3101 86.757C70.3101 85.9419 70.2906 85.0389 70.184 83.9C70.1467 83.4971 70.1307 83.0828 70.1307 82.664C70.1307 81.547 70.2448 80.3994 70.36 79.3572C70.4747 78.3144 70.5916 77.3809 70.5922 76.6657C70.5922 75.5754 70.5561 74.2761 70.5561 72.8888C70.5561 72.1949 70.5653 71.4792 70.5922 70.7574L69.9702 70.7361Z" fill="white"/>
<path d="M74.3936 70.7356C74.3684 71.3717 74.3598 72.0006 74.3598 72.6082C74.3598 73.823 74.3936 74.9542 74.3936 75.8899C74.3942 76.4528 74.2881 77.2602 74.1798 78.1693C74.0714 79.0793 73.9619 80.0954 73.9619 81.1026C73.9619 81.4804 73.9774 81.8571 74.0147 82.2273C74.1115 83.1969 74.1299 83.9596 74.1299 84.6589C74.1299 85.0668 74.1236 85.4533 74.1236 85.8458C74.1236 86.3405 74.1333 86.8449 74.1786 87.4094C74.2124 87.8282 74.2302 88.6367 74.2365 89.5992C74.2491 91.5455 75.218 93.3188 76.7878 94.6503C78.3575 95.983 80.5304 96.8854 82.9899 97.1186H82.994L83.0421 97.1235L83.0725 96.8281L83.0381 97.1229C84.7311 97.2993 89.7327 97.6481 91.1356 97.6492C92.0547 97.6492 98.7103 97.5717 103.543 97.5717C104.751 97.5717 105.844 97.5766 106.704 97.5886C107.561 97.6001 108.195 97.6208 108.445 97.6476C108.801 97.6842 109.51 97.7065 110.463 97.7213C111.412 97.736 112.594 97.7415 113.86 97.7415C117.774 97.7415 122.478 97.6847 123.552 97.6492C123.784 97.6416 124.2 97.6378 124.741 97.6378C127.794 97.6378 134.876 97.7458 137.41 97.7458C137.691 97.7458 137.916 97.7442 138.076 97.7415L138.07 97.445L138.064 97.7415C138.224 97.7442 138.45 97.7458 138.73 97.7458C141.265 97.7458 148.346 97.6378 151.399 97.6378C151.94 97.6378 152.356 97.6416 152.588 97.6492C153.662 97.6852 158.366 97.7415 162.28 97.7415C163.546 97.7415 164.728 97.736 165.678 97.7213C166.63 97.7065 167.339 97.6842 167.695 97.6476C167.945 97.6208 168.579 97.6001 169.436 97.5886C170.296 97.5766 171.389 97.5717 172.597 97.5717C177.43 97.5717 184.086 97.6492 185.004 97.6492C186.408 97.6481 191.409 97.2993 193.102 97.1229L193.068 96.8281L193.098 97.1235L193.15 97.1186H193.151C195.61 96.8854 197.782 95.983 199.353 94.6503C200.922 93.3188 201.891 91.5455 201.903 89.5992C201.91 88.6367 201.927 87.8282 201.961 87.4094C202.007 86.8449 202.016 86.3405 202.016 85.8464C202.016 85.4538 202.01 85.0678 202.01 84.6611C202.01 83.9612 202.028 83.198 202.126 82.2273C202.163 81.8577 202.178 81.4815 202.178 81.1043C202.178 80.0964 202.069 79.0799 201.96 78.1698C201.852 77.2608 201.746 76.4533 201.746 75.8899C201.746 74.9542 201.78 73.823 201.78 72.6082C201.78 72.0006 201.772 71.3717 201.746 70.7356L201.124 70.758C201.15 71.3848 201.158 72.0055 201.158 72.6082C201.158 73.8126 201.124 74.9416 201.124 75.8899C201.125 76.5178 201.234 77.3301 201.342 78.2364C201.449 79.1416 201.556 80.1368 201.556 81.1043C201.556 81.4662 201.541 81.8238 201.506 82.1711C201.406 83.1641 201.388 83.9514 201.388 84.6611C201.388 85.0738 201.394 85.4598 201.394 85.8464C201.394 86.3334 201.385 86.8203 201.341 87.3641C201.304 87.8183 201.288 88.6258 201.281 89.5954C201.269 91.3523 200.4 92.9655 198.939 94.2081C197.478 95.449 195.427 96.3078 193.089 96.5289L193.09 96.5284L193.038 96.5333L193.035 96.5338H193.034C191.38 96.7075 186.34 97.0574 185.004 97.0569C184.098 97.0569 177.433 96.9788 172.597 96.9788C171.387 96.9788 170.292 96.9837 169.427 96.9963C168.56 97.0083 167.934 97.0268 167.627 97.0585C167.326 97.0902 166.609 97.1147 165.667 97.1289C164.723 97.1431 163.544 97.1491 162.28 97.1491C158.375 97.1491 153.662 97.0923 152.61 97.0569C152.36 97.0487 151.943 97.0454 151.399 97.0454C148.337 97.0454 141.254 97.1529 138.73 97.1529C138.452 97.1529 138.229 97.1518 138.077 97.1491H138.07H138.064C137.911 97.1518 137.688 97.1529 137.41 97.1529C134.887 97.1529 127.803 97.0454 124.741 97.0454C124.196 97.0454 123.78 97.0487 123.53 97.0569C122.478 97.0923 117.765 97.1491 113.86 97.1491C112.596 97.1491 111.417 97.1431 110.472 97.1289C109.531 97.1147 108.814 97.0902 108.513 97.0585C108.206 97.0268 107.58 97.0083 106.713 96.9963C105.848 96.9837 104.752 96.9788 103.543 96.9788C98.7069 96.9788 92.042 97.0569 91.1356 97.0569C89.7998 97.0574 84.7603 96.7075 83.1063 96.5338H83.104L83.0507 96.5289H83.0513C80.7133 96.3078 78.6625 95.449 77.2017 94.2081C75.7403 92.9655 74.8712 91.3523 74.8592 89.5954C74.8523 88.6258 74.8351 87.8183 74.799 87.3641C74.7554 86.8198 74.7456 86.3334 74.7456 85.8458C74.7456 85.4593 74.7519 85.0722 74.7519 84.6589C74.7519 83.9498 74.7336 83.163 74.6338 82.1711C74.5989 81.8233 74.584 81.4651 74.584 81.1026C74.584 80.1363 74.69 79.141 74.7978 78.2359C74.905 77.3296 75.0151 76.5178 75.0157 75.8899C75.0157 74.9416 74.9818 73.8126 74.9818 72.6082C74.9818 72.0055 74.9904 71.3848 75.0157 70.758L74.3936 70.7356Z" fill="white"/>
<path d="M173.792 70.3016C173.067 70.2028 173.014 68.1037 173.844 65.5486C174.674 62.9931 177.319 61.0178 176.126 56.475C176.126 56.475 174.363 55.9814 172.548 55.9814C170.733 55.9814 168.97 56.475 168.97 56.475C167.777 61.0178 170.422 62.9931 171.251 65.5486C172.081 68.1037 172.029 70.2028 171.304 70.3016C170.577 70.4005 169.418 70.8077 170.007 70.8077C170.596 70.8077 172.548 70.8077 172.548 70.8077C172.548 70.8077 174.5 70.8077 175.089 70.8077C175.678 70.8077 174.518 70.4005 173.792 70.3016Z" fill="#FFDFD1"/>
<path d="M172.547 57.6351C170.836 57.6351 169.28 58.0549 169.28 58.0549C169.28 58.0549 169.345 59.6769 169.695 60.7846C170.214 62.4252 171.744 63.9561 172.547 63.9561C173.351 63.9561 174.881 62.4252 175.4 60.7846C175.75 59.6769 175.815 58.0549 175.815 58.0549C175.815 58.0549 174.259 57.6351 172.547 57.6351Z" fill="#E67F53"/>
<path d="M172.935 61.9672L174.298 54.4265C174.346 54.1601 174.516 53.9281 174.761 53.7932L178.077 51.9681L177.922 51.7115L174.605 53.5366C174.28 53.7157 174.055 54.0231 173.991 54.3763L172.628 61.9169L172.935 61.9672Z" fill="#A85D3C"/>
<path d="M112.816 66.7519C112.816 66.7519 118.064 60.3747 118.612 60.7241C119.159 61.0729 116.981 62.416 119.263 61.9421C121.545 61.4682 123.611 57.8158 124.782 58.3585C125.952 58.9006 122.686 61.3694 124.189 61.6161C125.693 61.8635 130.623 58.4065 131.529 59.4433C132.435 60.4806 123.512 67.7406 123.512 67.7406L112.816 66.7519Z" fill="#90CF7D"/>
<path d="M117.607 64.2269C117.607 65.678 116.371 66.8545 114.847 66.8545C113.324 66.8545 112.089 65.678 112.089 64.2269C112.089 62.7757 113.324 61.5997 114.847 61.5997C116.371 61.5997 117.607 62.7757 117.607 64.2269Z" fill="#E6473F"/>
<path d="M130.205 65.3231C130.205 66.415 129.276 67.3005 128.129 67.3005C126.982 67.3005 126.052 66.415 126.052 65.3231C126.052 64.2312 126.982 63.3462 128.129 63.3462C129.276 63.3462 130.205 64.2312 130.205 65.3231Z" fill="#E6473F"/>
<path d="M130.367 70.8077H111.4C109.184 70.8077 107.387 69.0973 107.387 66.9866V64.6729H134.379V66.9866C134.379 69.0973 132.582 70.8077 130.367 70.8077Z" fill="#234E7A"/>
<path d="M159.195 62.6562C159.281 62.5655 162.359 60.5553 163.49 60.8196C164.622 61.0838 163.015 63.765 162.807 64.0047C162.6 64.2443 159.195 62.6562 159.195 62.6562Z" fill="#703E28"/>
<path d="M143.878 66.7627C145.269 64.7809 149.068 62.9307 151.391 62.9242C153.715 62.9176 156.213 61.0734 158.828 61.2486C161.442 61.4239 162.023 62.6998 164.115 62.3105C166.206 61.9218 167.576 61.5347 167.659 62.7598C167.742 63.9849 166.866 66.5192 165.955 68.5605C165.044 70.6018 147.035 69.9057 145.175 69.3161C143.316 68.7265 143.356 67.5079 143.878 66.7627Z" fill="#8F4F33"/>
<path d="M156.59 67.7122C156.59 67.7122 159.546 65.4132 160.168 65.5813C160.79 65.7484 158.574 67.4894 158.574 67.4894C158.574 67.4894 163.024 64.7307 163.89 65.1473C164.757 65.5633 159.624 68.1189 159.624 68.1189C159.624 68.1189 169.141 64.7313 169.141 65.0365C169.141 65.3411 161.888 68.7233 161.888 68.7233C161.888 68.7233 168.069 68.0616 166.741 68.8554C165.412 69.6497 157.29 70.0079 157.329 69.8599C157.368 69.7114 156.59 67.7122 156.59 67.7122Z" fill="#90CF7D"/>
<path d="M158.897 68.8554C158.897 69.801 157.515 70.5675 155.811 70.5675C154.107 70.5675 152.725 69.801 152.725 68.8554C152.725 67.9104 154.107 67.1439 155.811 67.1439C157.515 67.1439 158.897 67.9104 158.897 68.8554Z" fill="#E6473F"/>
<path d="M154.255 68.7112C154.255 68.7112 152.972 67.0067 151.456 66.933C149.939 66.8599 150.677 67.3534 149.238 67.1438C147.8 66.9336 147.605 66.0437 146.983 66.933C146.361 67.8229 146.959 68.222 146.555 68.8553C146.152 69.4892 145.194 69.9003 146.905 69.9358C148.616 69.9707 150.211 69.5301 151.106 69.9358C152 70.3409 154.758 69.2697 154.255 68.7112Z" fill="#FAF895"/>
<path d="M168.564 70.7521H140.792C140.312 70.7521 139.923 70.3819 139.923 69.925C139.923 69.4685 140.312 69.0984 140.792 69.0984H168.564C169.043 69.0984 169.432 69.4685 169.432 69.925C169.432 70.3819 169.043 70.7521 168.564 70.7521Z" fill="#525252"/>
</svg>
