<svg width="321" height="283" viewBox="0 0 321 283" fill="none" xmlns="http://www.w3.org/2000/svg">
<path d="M19.6788 187.671C19.6788 187.671 -19.7472 145.341 13.0113 99.5113C42.0764 58.8488 75.9641 61.6283 100.827 78.1296C111.417 85.1576 141.947 78.9958 167.932 37.6199C203.369 -18.8062 326.203 15.4166 303.806 102.229C292.967 144.24 336.793 145.766 314.463 187.76L19.6788 187.671Z" fill="white" fill-opacity="0.33"/>
<path d="M220.208 143.177C225.208 124.844 189.726 117.668 181.924 111.994C178.437 109.458 180.134 102.269 179.156 97.3798C177.46 97.6345 175.729 97.8118 173.948 97.8932C164.626 98.3198 154.828 97.5825 145.868 94.6558C145.077 100.513 147.684 107.772 143.556 110.774C135.753 116.448 104.874 120.621 98.4864 135.525C90.2597 154.725 127.541 237.065 127.541 237.065L161.374 236.208H163.196L193.208 240.51C193.208 240.51 214.71 163.329 220.208 143.177Z" fill="#2A4E96"/>
<path d="M179.748 107.309C179.358 104.195 179.753 100.361 179.156 97.3799C177.46 97.6345 175.729 97.8119 173.948 97.8932C164.626 98.3199 154.828 97.5825 145.868 94.6559C145.572 96.8492 145.752 99.2385 145.877 101.527C157.149 103.632 168.306 105.992 179.748 107.309Z" fill="#1E3D70"/>
<path d="M139.506 61.6932C136.858 53.4812 130.59 55.3825 130.004 55.5799C129.388 55.6519 122.909 56.6145 124.029 65.1692C125.154 73.7759 130.148 78.4412 134.83 77.0705C139.649 76.3065 142.169 69.9545 139.506 61.6932Z" fill="#FFB27D"/>
<path d="M130.121 43.8732C133.401 7.87054 160.77 9.88788 163.352 10.1585C165.933 9.88788 193.304 7.87054 196.585 43.8732C199.885 80.0905 183.753 103.744 163.352 102.443C142.952 103.744 126.821 80.0905 130.121 43.8732Z" fill="#FFD2B5"/>
<path d="M201.892 60.2452C204.168 61.0452 206.224 62.7852 206.197 66.5052C206.157 72.4452 203.91 76.0439 199.288 78.0532C201.396 71.3466 201.044 65.6266 201.892 60.2452Z" fill="#FFB27D"/>
<path d="M166.216 54.3893C166.828 55.6626 167.398 56.9506 167.926 58.2519C168.456 59.5519 168.953 60.864 169.426 62.1826C169.901 63.5026 170.353 64.8279 170.781 66.1626C171.214 67.4946 171.618 68.8373 172.006 70.1839L172.11 70.5426L171.869 70.7613C171.026 71.5266 170.182 72.2893 169.314 73.0279C168.888 73.4039 168.433 73.7546 167.994 74.1186C167.554 74.4826 167.109 74.8413 166.648 75.1826C166.989 74.7213 167.348 74.2759 167.712 73.8359C168.076 73.3973 168.426 72.9426 168.802 72.516C169.541 71.648 170.304 70.8039 171.069 69.9613L170.932 70.5386C170.444 69.2226 169.972 67.9039 169.53 66.5746C169.082 65.2466 168.66 63.9106 168.258 62.5679C167.856 61.2253 167.478 59.8733 167.132 58.5133C166.784 57.1519 166.478 55.7773 166.216 54.3893Z" fill="#D99E76"/>
<path d="M187.27 46.8932C187.27 46.8932 186.946 46.8559 186.381 46.7905C185.829 46.7132 185.042 46.6319 184.142 46.4972C183.226 46.4119 182.196 46.2532 181.106 46.1785C180.562 46.1145 180.006 46.1065 179.446 46.0692C178.885 46.0345 178.326 46.0639 177.765 46.0465C177.217 46.1012 176.65 46.0825 176.12 46.1652C175.59 46.2572 175.044 46.2679 174.553 46.4172C174.048 46.5252 173.545 46.6119 173.101 46.7932C172.645 46.9465 172.173 47.0452 171.793 47.2505C171.404 47.4385 171.01 47.5812 170.665 47.7292C170.357 47.9199 170.061 48.0705 169.817 48.2012C169.322 48.4585 169.006 48.5999 169.006 48.5999C169.006 48.5999 169.126 48.3025 169.396 47.7892C169.533 47.5359 169.7 47.2172 169.924 46.8719C170.17 46.5545 170.477 46.2079 170.834 45.8439C171.169 45.4452 171.621 45.1305 172.11 44.7932C172.589 44.4279 173.153 44.1625 173.754 43.9132C174.346 43.6212 175 43.4852 175.662 43.3265C176.326 43.1559 177.012 43.1599 177.694 43.0852C178.369 43.1159 179.054 43.0999 179.705 43.2105C180.358 43.3065 180.997 43.4172 181.589 43.6039C182.79 43.9225 183.837 44.4145 184.69 44.8945C186.401 45.8599 187.27 46.8932 187.27 46.8932Z" fill="#453933"/>
<path d="M156.05 48.7599C156.05 48.7599 155.754 48.5972 155.238 48.3106C154.988 48.1732 154.682 48.0066 154.333 47.8146C153.99 47.6346 153.604 47.4306 153.182 47.2066C152.746 47.0212 152.312 46.7705 151.829 46.5705C151.358 46.3452 150.849 46.1612 150.333 45.9759C149.828 45.7532 149.278 45.6705 148.754 45.4852C148.21 45.4292 147.677 45.2226 147.133 45.2439L146.325 45.1772C146.058 45.2092 145.793 45.2185 145.526 45.2332C144.986 45.2105 144.485 45.4119 143.964 45.4759C143.448 45.5626 142.974 45.7999 142.486 45.9292C142.237 45.9906 142.016 46.0986 141.802 46.2159C141.578 46.3199 141.364 46.4212 141.156 46.5172C140.745 46.7212 140.322 46.8692 140.004 47.0906C139.677 47.2959 139.366 47.4572 139.112 47.5972C138.598 47.8746 138.27 48.0199 138.27 48.0199C138.27 48.0199 138.401 47.7079 138.689 47.1852C138.836 46.9265 139.01 46.6025 139.242 46.2505C139.446 45.8732 139.77 45.5292 140.137 45.1545C140.517 44.7972 140.858 44.3039 141.401 44.0012C141.925 43.6812 142.438 43.2332 143.092 42.9972C143.745 42.7732 144.409 42.4306 145.156 42.3826C145.524 42.3319 145.896 42.2746 146.27 42.2399C146.644 42.2452 147.02 42.2719 147.394 42.2932C148.156 42.3079 148.858 42.5599 149.565 42.7319C150.224 43.0079 150.904 43.2386 151.46 43.6106C151.745 43.7866 152.029 43.9492 152.292 44.1319C152.538 44.3306 152.781 44.5252 153.016 44.7132C153.501 45.0666 153.865 45.5106 154.228 45.8746C154.91 46.6519 155.381 47.3679 155.658 47.9025C155.946 48.4279 156.05 48.7599 156.05 48.7599Z" fill="#453933"/>
<path d="M184.449 63.7292C184.449 63.7292 184.334 63.4119 184.136 62.8546C183.945 62.2999 183.613 61.5279 183.19 60.6372C182.757 59.7559 182.2 58.7519 181.432 57.8799C181.068 57.4239 180.596 57.0772 180.125 56.7599C179.878 56.6226 179.622 56.4999 179.36 56.4039L178.952 56.3012L178.849 56.2746L178.798 56.2599L178.773 56.2532C178.949 56.2706 178.817 56.2586 178.854 56.2626L178.846 56.2612H178.832L178.58 56.2546L178.076 56.2306L177.758 56.3172C177.554 56.3146 177.298 56.5212 177.064 56.6052C176.626 56.9319 176.18 57.2946 175.838 57.7732C175.482 58.2266 175.166 58.7172 174.904 59.2066C174.632 59.6892 174.401 60.1719 174.194 60.6212C173.793 61.5252 173.46 62.2999 173.272 62.8559C173.069 63.4119 172.953 63.7292 172.953 63.7292C172.953 63.7292 172.948 63.3879 173.008 62.7946C173.081 62.2052 173.173 61.3519 173.442 60.3559C173.572 59.8559 173.726 59.3146 173.965 58.7612C174.185 58.2039 174.454 57.6172 174.845 57.0572C175.208 56.4866 175.704 55.9319 176.333 55.4786C176.704 55.3092 176.986 55.0599 177.462 54.9826C177.681 54.9319 177.912 54.8812 178.125 54.8519L178.628 54.8653C179.498 54.9213 180.177 55.2319 180.837 55.6226C181.46 56.0426 181.986 56.5586 182.381 57.1106C182.806 57.6452 183.097 58.2266 183.353 58.7719C183.609 59.3186 183.789 59.8572 183.933 60.3546C184.485 62.3572 184.449 63.7292 184.449 63.7292Z" fill="#29202E"/>
<path d="M154.038 63.7292C154.038 63.7292 153.925 63.4119 153.725 62.8546C153.534 62.2999 153.202 61.5279 152.781 60.6372C152.346 59.7559 151.789 58.7519 151.022 57.8799C150.657 57.4239 150.185 57.0772 149.716 56.7599C149.469 56.6226 149.212 56.4999 148.949 56.4039L148.541 56.3012L148.438 56.2746L148.388 56.2599L148.362 56.2532C148.54 56.2706 148.408 56.2586 148.445 56.2626L148.437 56.2612H148.421L148.169 56.2546L147.666 56.2306L147.348 56.3172C147.144 56.3146 146.889 56.5212 146.654 56.6052C146.216 56.9319 145.769 57.2946 145.428 57.7732C145.073 58.2266 144.756 58.7172 144.493 59.2066C144.221 59.6892 143.99 60.1719 143.785 60.6212C143.384 61.5252 143.049 62.2999 142.861 62.8559C142.658 63.4119 142.542 63.7292 142.542 63.7292C142.542 63.7292 142.537 63.3879 142.597 62.7946C142.67 62.2052 142.762 61.3519 143.032 60.3559C143.162 59.8559 143.317 59.3146 143.554 58.7612C143.774 58.2039 144.044 57.6172 144.434 57.0572C144.798 56.4866 145.294 55.9319 145.922 55.4786C146.293 55.3092 146.576 55.0599 147.052 54.9826C147.27 54.9319 147.501 54.8812 147.714 54.8519L148.217 54.8653C149.088 54.9213 149.766 55.2319 150.428 55.6226C151.05 56.0426 151.576 56.5586 151.97 57.1106C152.397 57.6452 152.688 58.2266 152.942 58.7719C153.198 59.3186 153.378 59.8572 153.524 60.3546C154.076 62.3572 154.038 63.7292 154.038 63.7292Z" fill="#29202E"/>
<path d="M148.741 79.8853L177.109 80.5946C177.109 80.5946 167.357 94.5519 148.741 79.8853Z" fill="white"/>
<path d="M182.652 19.7306C182.652 19.7306 175.096 37.9532 155.096 39.7306L165.318 28.6199C165.318 28.6199 150.208 41.0639 134.208 44.1759C134.208 44.1759 127.541 82.3972 142.652 102.397C142.652 102.397 120.429 77.5092 125.762 31.7306C131.096 -14.0468 180.429 -0.269447 182.652 11.7306V19.7306Z" fill="#453933"/>
<path d="M180.874 16.1759C180.874 16.1759 177.762 30.3972 195.095 42.3972C195.095 42.3972 199.095 77.0639 184.429 102.843C184.429 102.843 201.762 89.5092 203.985 49.5092C206.207 9.5092 196.874 5.06387 178.208 8.17587C159.541 11.2865 180.874 16.1759 180.874 16.1759Z" fill="#453933"/>
<path d="M260.748 250.84C240.714 244.464 203.275 240.173 160.394 240.173C117.512 240.173 80.0728 244.464 60.0395 250.84H44.5342V261.508C44.5342 273.291 96.4062 282.841 160.394 282.841C224.381 282.841 276.253 273.291 276.253 261.508V250.84H260.748Z" fill="#4F3846"/>
<path d="M276.253 250.84C276.253 262.622 224.381 272.175 160.394 272.175C96.4062 272.175 44.5342 262.622 44.5342 250.84C44.5342 239.058 96.4062 229.506 160.394 229.506C224.381 229.506 276.253 239.058 276.253 250.84Z" fill="#704E61"/>
<path d="M250.652 245.211C250.652 251.267 211.253 256.175 162.652 256.175C114.05 256.175 74.6516 251.267 74.6516 245.211C74.6516 239.156 114.05 234.248 162.652 234.248C211.253 234.248 250.652 239.156 250.652 245.211Z" fill="#4F3846"/>
<path d="M69.9463 153.092C69.9463 153.092 40.973 81.9546 43.113 81.9546C45.253 81.9546 60.2289 98.7133 58.0889 114.76C58.0889 114.76 84.2983 164.324 69.9463 153.092Z" fill="#F7F7F7"/>
<path d="M59.2491 175.289C59.2491 175.289 53.8997 139.988 54.1677 134.907C54.4344 129.825 63.5277 119.396 65.1317 119.663C66.737 119.931 66.469 125.012 66.469 125.012C66.469 125.012 71.2824 122.069 69.9464 129.291C69.9464 129.291 75.2944 129.291 72.6197 137.313C72.6197 137.313 76.6317 135.976 74.7597 141.057C72.8877 146.139 69.9464 153.092 69.9464 153.092L77.4344 181.975L59.2491 175.289Z" fill="#FFD2B5"/>
<path d="M57.3569 162.353C58.3783 169.543 59.249 175.289 59.249 175.289L77.4343 181.975L71.7649 160.111C66.9609 160.848 62.1583 161.599 57.3569 162.353Z" fill="#FFB27D"/>
<path d="M98.6516 134.844L120.134 175.115C120.134 175.115 107.297 245.004 93.0342 246.43C84.2569 247.308 76.8116 248.341 67.5409 221.955C58.2689 195.568 56.6636 167.27 56.6636 167.27L76.6316 161.565L85.1756 189.7L98.6516 134.844Z" fill="#2A4E96"/>
<path d="M120.134 176.448L98.6517 136.177L85.3184 190.399C91.301 211.145 100.166 223.16 99.3637 237.869C99.2557 239.832 97.137 243.803 94.973 247.153C108.44 240.113 120.134 176.448 120.134 176.448Z" fill="#1E3D70"/>
<path d="M267.041 104.341C262.47 111.576 226.45 171.149 240.634 162.101C240.634 162.101 259.754 125.797 269.48 106.387C268.633 105.739 267.821 105.069 267.041 104.341Z" fill="#F7F7F7"/>
<path d="M272.953 87.8212C272.953 87.8212 256.11 101.792 266.969 108.917C277.826 116.041 283.478 94.2038 283.478 94.2038C283.478 94.2038 279.85 98.2092 275.092 105.548C275.092 105.548 273.257 108.814 272.71 107.141C272.261 105.769 279.682 95.7625 279.988 91.5372C279.988 91.5372 275.082 97.2425 271.845 103.513C269.337 108.368 269.558 104.858 272.37 99.1078C274.642 94.4652 277.085 90.1438 276.421 89.6745C275.757 89.2052 269.69 98.5452 266.814 102.116C265.105 104.237 265.882 102.33 267.545 98.7438C268.556 96.5612 271.782 91.5558 272.953 87.8212Z" fill="#F7F7F7"/>
<path d="M258.996 175.289C258.996 175.289 264.345 139.988 264.078 134.907C263.81 129.825 254.717 119.396 253.113 119.663C251.508 119.931 251.776 125.012 251.776 125.012C251.776 125.012 246.962 122.069 248.3 129.291C248.3 129.291 242.95 129.291 245.625 137.313C245.625 137.313 241.613 135.976 243.485 141.057C245.357 146.139 248.3 153.092 248.3 153.092L240.81 181.975L258.996 175.289Z" fill="#FFD2B5"/>
<path d="M260.888 162.353C259.868 169.543 258.996 175.289 258.996 175.289L240.81 181.975L246.48 160.111C251.284 160.848 256.086 161.599 260.888 162.353Z" fill="#FFB27D"/>
<path d="M219.593 134.844L198.11 175.115C198.11 175.115 210.948 245.004 225.21 246.43C233.988 247.308 241.433 248.341 250.705 221.955C259.976 195.568 261.581 167.27 261.581 167.27L241.613 161.565L233.069 189.7L219.593 134.844Z" fill="#2A4E96"/>
<path d="M198.11 176.448L219.593 136.177L232.926 190.399C226.944 211.145 218.078 223.16 218.881 237.869C218.989 239.832 221.109 243.803 223.272 247.153C209.805 240.113 198.11 176.448 198.11 176.448Z" fill="#1E3D70"/>
<path d="M111.541 151.511C111.541 151.511 88.2077 194.622 120.208 206.177C147.16 215.91 140.874 161.732 111.541 151.511Z" fill="#2A4E96"/>
<path d="M207.138 151.511C207.138 151.511 230.472 194.622 198.472 206.177C171.52 215.91 177.805 161.732 207.138 151.511Z" fill="#2A4E96"/>
<path d="M103.625 238.357C103.625 245.142 129.041 250.644 160.394 250.644C191.746 250.644 217.162 245.142 217.162 238.357C217.162 231.572 191.746 226.072 160.394 226.072C129.041 226.072 103.625 231.572 103.625 238.357Z" fill="#FDE3E9"/>
<path d="M121.144 239.186C121.144 243.877 138.717 247.68 160.394 247.68C182.07 247.68 199.644 243.877 199.644 239.186C199.644 234.494 182.07 230.692 160.394 230.692C138.717 230.692 121.144 234.494 121.144 239.186Z" fill="#EACFD3"/>
<path d="M120.493 237.054C127.453 238.6 134.39 239.37 141.302 240.139L141.34 240.142H141.376C142.084 240.14 143.416 240.304 144.949 240.47C146.486 240.637 148.248 240.806 149.918 240.806C151.09 240.806 152.217 240.725 153.214 240.488C154.205 240.248 155.092 239.853 155.708 239.141L155.201 238.708L155.673 239.179C155.918 238.922 155.945 238.642 155.948 238.448C155.945 238.204 155.897 237.994 155.841 237.775C155.754 237.451 155.64 237.113 155.55 236.799C155.46 236.488 155.402 236.196 155.405 236.039L155.412 235.946L155.416 235.93L155.389 235.922L155.413 235.934L155.416 235.93L155.389 235.922L155.413 235.934L155.426 235.909L155.436 235.882C155.757 235.096 156.265 234.653 157.001 234.256C157.734 233.865 158.677 233.579 159.673 233.182L159.426 232.563L159.545 233.218C160.449 233.053 161.873 232.939 163.513 232.939C166.282 232.937 169.694 233.265 172.457 234.156C173.838 234.597 175.053 235.181 175.942 235.899C176.836 236.62 177.398 237.445 177.588 238.446L178.244 238.324L177.586 238.44C177.63 238.688 177.65 238.915 177.65 239.122C177.649 239.67 177.518 240.077 177.294 240.42C176.961 240.928 176.365 241.325 175.528 241.591C174.697 241.856 173.652 241.979 172.53 241.977C170.896 241.977 169.101 241.721 167.544 241.348C165.99 240.979 164.654 240.475 164.004 240.063L163.65 240.628L164.02 240.073C161.998 238.717 161.182 237.056 161.178 235.499C161.178 234.205 161.752 232.944 162.833 231.956C163.914 230.972 165.506 230.269 167.528 230.156L167.49 229.491V230.157C169.342 230.155 170.549 230.479 171.222 230.912C171.889 231.352 172.098 231.817 172.114 232.463C172.13 233.429 171.426 234.806 170.28 236.022C169.144 237.246 167.6 238.32 166.114 238.848L166.09 238.856L166.068 238.867C165.712 239.027 165.03 239.234 164.157 239.434C161.525 240.043 157.094 240.634 152.945 240.633C150.18 240.636 147.532 240.367 145.658 239.711C144.721 239.385 143.988 238.965 143.518 238.484C143.049 237.997 142.817 237.482 142.81 236.788V236.769V236.752L142.806 236.642C142.812 236.2 142.937 235.893 143.197 235.593C143.585 235.145 144.372 234.749 145.484 234.503C146.592 234.252 148 234.139 149.58 234.139C157.977 234.133 171.086 237.313 173.089 237.818L173.101 237.821L173.114 237.824C176.484 238.53 180.74 239.679 184.609 239.682C186.834 239.681 188.961 239.3 190.702 238.157C192.446 237.016 193.728 235.105 194.26 232.305L192.95 232.053C192.454 234.594 191.389 236.101 189.969 237.044C188.545 237.982 186.688 238.351 184.609 238.349C180.997 238.352 176.805 237.241 173.389 236.518L173.252 237.172L173.413 236.525C171.356 236.015 158.264 232.812 149.58 232.806C147.388 232.809 145.472 233.004 144.014 233.548C143.286 233.822 142.661 234.189 142.2 234.708C141.737 235.222 141.469 235.904 141.473 236.642L141.478 236.822L142.144 236.788H141.477C141.472 237.821 141.886 238.734 142.566 239.417C143.586 240.448 145.122 241.049 146.921 241.436C148.724 241.817 150.808 241.967 152.945 241.967C155.794 241.967 158.737 241.7 161.197 241.336C162.428 241.153 163.537 240.946 164.456 240.734C165.378 240.521 166.101 240.309 166.609 240.085L166.338 239.476L166.562 240.104C168.298 239.481 169.976 238.301 171.256 236.932C172.525 235.557 173.432 234.004 173.448 232.463C173.464 231.433 172.952 230.412 171.936 229.785C170.926 229.151 169.488 228.827 167.49 228.824H167.472L167.453 228.825C165.164 228.952 163.266 229.758 161.936 230.97C160.605 232.18 159.844 233.803 159.845 235.499C159.84 237.549 160.966 239.648 163.281 241.182L163.289 241.188L163.297 241.193C164.182 241.741 165.582 242.245 167.233 242.644C168.88 243.039 170.758 243.311 172.53 243.311C174.15 243.306 175.684 243.092 176.9 242.464C177.505 242.149 178.034 241.72 178.408 241.153C178.782 240.588 178.986 239.893 178.984 239.122C178.984 238.829 178.956 238.525 178.9 238.208L178.898 238.201C178.644 236.833 177.849 235.717 176.778 234.858C175.166 233.569 172.928 232.78 170.554 232.284C168.181 231.792 165.668 231.605 163.513 231.605C161.808 231.606 160.334 231.721 159.306 231.906L159.241 231.918L159.178 231.944C158.254 232.316 157.277 232.604 156.377 233.079C155.482 233.545 154.646 234.255 154.198 235.388L154.817 235.636L154.221 235.337C154.101 235.58 154.072 235.818 154.072 236.039C154.077 236.565 154.237 237.058 154.372 237.512C154.441 237.734 154.506 237.944 154.552 238.115C154.597 238.282 154.617 238.418 154.614 238.448V238.449L154.988 238.494L154.73 238.236L154.614 238.449L154.988 238.494L154.73 238.236L154.712 238.255L154.696 238.273C154.362 238.669 153.746 238.991 152.904 239.191C152.065 239.392 151.025 239.475 149.918 239.473C148.337 239.473 146.616 239.311 145.092 239.145C143.562 238.98 142.249 238.811 141.376 238.809V239.476L141.45 238.813C134.537 238.045 127.649 237.279 120.782 235.753L120.493 237.054Z" fill="#F9AE47"/>
<path d="M187.809 238.811C176.69 239.396 165.397 240.863 154.265 240.861C150.74 240.861 147.232 240.715 143.75 240.349L143.732 240.346H143.713C142.326 240.277 141.384 240.153 140.848 240.013C140.581 239.946 140.418 239.868 140.381 239.84L140.372 239.833L140.253 239.984L140.416 239.891L140.372 239.833L140.253 239.984L140.416 239.891L140.084 240.08H140.464L140.416 239.891L140.084 240.08H140.464H140.138L140.436 240.221L140.464 240.08H140.138L140.436 240.221L140.322 240.167L140.426 240.237L140.436 240.221L140.322 240.167L140.426 240.237C140.422 240.228 140.622 240.044 140.952 239.875C141.952 239.332 143.981 238.685 145.776 238.199L145.601 237.556L145.75 238.205C153.192 236.488 160.408 235.63 167.733 235.63C170.178 235.63 172.637 235.725 175.12 235.916L175.129 235.917H175.136C182.434 236.301 190.126 236.687 197.829 236.687V235.353C190.17 235.353 182.501 234.969 175.206 234.585L175.172 235.252L175.222 234.587C172.706 234.393 170.213 234.297 167.733 234.297C160.304 234.296 152.981 235.168 145.45 236.906L145.437 236.909L145.425 236.912C144.076 237.281 142.609 237.725 141.45 238.187C140.869 238.418 140.366 238.652 139.968 238.906C139.769 239.036 139.593 239.168 139.438 239.341C139.29 239.509 139.136 239.745 139.13 240.08C139.129 240.269 139.194 240.464 139.293 240.609C139.468 240.864 139.689 240.994 139.929 241.106C140.292 241.267 140.74 241.376 141.345 241.469C141.949 241.561 142.705 241.63 143.648 241.677L143.68 241.012L143.61 241.675C147.148 242.046 150.702 242.194 154.265 242.194C165.513 242.194 176.83 240.722 187.88 240.141L187.809 238.811Z" fill="#F9AE47"/>
<path d="M195.412 242.284C182.192 234.73 167.281 229.644 151.938 229.642C145.321 229.642 138.624 230.591 131.958 232.696L132.16 233.33L131.976 232.691C131.03 232.961 130.365 233.179 129.905 233.368C129.673 233.465 129.494 233.55 129.333 233.657L129.085 233.872C129.005 233.968 128.896 234.13 128.892 234.38C128.888 234.592 128.997 234.793 129.101 234.896C129.289 235.079 129.429 235.11 129.557 235.153C129.928 235.252 130.349 235.262 130.92 235.268C132.158 235.267 133.965 235.14 135.641 235.015C137.308 234.889 138.862 234.765 139.456 234.765H139.485L139.513 234.764C146.277 234.17 154.696 232.061 162.117 232.065C164.504 232.065 166.781 232.281 168.858 232.824L169.026 232.179L168.844 232.82C169.864 233.11 170.522 233.467 170.886 233.805C171.25 234.149 171.352 234.429 171.36 234.781C171.369 235.261 171.07 235.948 170.486 236.693C169.622 237.812 168.193 239.03 166.75 240.105C165.306 241.182 163.85 242.125 162.897 242.761L163.636 243.87C164.894 243.032 167.105 241.61 169.021 240.016C169.981 239.216 170.869 238.374 171.54 237.509C172.205 236.645 172.685 235.752 172.693 234.781C172.701 234.072 172.385 233.358 171.789 232.822C171.194 232.28 170.352 231.867 169.21 231.538L169.201 231.536L169.196 231.534C166.972 230.955 164.584 230.732 162.117 230.732C154.462 230.736 146 232.867 139.398 233.434L139.456 234.1V233.433C138.733 233.434 137.216 233.56 135.541 233.685C133.876 233.81 132.073 233.934 130.92 233.934C130.525 233.934 130.202 233.918 130.028 233.892L129.932 233.873L129.917 233.869L129.778 234.236L130.04 233.95L129.917 233.869L129.778 234.236L130.04 233.95L129.646 234.38H130.225C130.229 234.184 130.113 234.009 130.04 233.95L129.646 234.38H130.225H129.685L130.102 234.733C130.136 234.693 130.222 234.581 130.225 234.38H129.685L130.102 234.733L129.864 234.532L130.069 234.768L130.102 234.733L129.864 234.532L130.069 234.768L129.998 234.686L130.065 234.772L130.069 234.768L129.998 234.686L130.065 234.772C130.066 234.762 130.298 234.634 130.677 234.498C131.061 234.357 131.612 234.181 132.342 233.972L132.35 233.969L132.36 233.967C138.89 231.905 145.448 230.976 151.938 230.976C166.982 230.974 181.68 235.972 194.75 243.441L195.412 242.284Z" fill="#F9AE47"/>
<path d="M132.629 230.704C133.597 232.853 134.65 234.857 135.37 236.92L136 236.7L135.361 236.891C135.504 237.365 135.706 237.908 135.87 238.458C136.036 239.006 136.157 239.56 136.154 239.993C136.154 240.17 136.136 240.328 136.1 240.456L136.744 240.632L136.112 240.42C135.99 240.752 135.837 240.77 135.78 240.776L135.75 240.772H135.749L135.74 240.782L135.753 240.777L135.749 240.772L135.74 240.782L135.753 240.777L135.745 240.716L135.782 240.524L135.15 240.313L135.746 240.611C135.766 240.564 135.862 240.452 136.05 240.341C136.328 240.17 136.772 240.016 137.202 239.911C137.636 239.803 138.057 239.736 138.325 239.697L138.352 239.693L138.38 239.688C140.641 239.172 142.957 239.064 145.334 238.741L145.245 238.081L145.296 238.745C148.077 238.532 150.761 238.211 153.452 237.672L153.457 237.67H153.46C154.196 237.512 155.178 237.322 156.128 236.999C157.073 236.668 158.013 236.216 158.636 235.4L158.641 235.393L158.644 235.389C158.966 234.941 159.154 234.475 159.156 233.996C159.158 233.354 158.798 232.827 158.368 232.485C157.713 231.963 156.848 231.68 155.97 231.484C155.092 231.293 154.206 231.215 153.532 231.213C153.25 231.213 153.008 231.227 152.793 231.258L152.786 231.26L152.776 231.263C151.441 231.503 150.425 232.037 149.752 232.799C149.076 233.558 148.778 234.517 148.781 235.481C148.79 237.228 149.678 239.039 151.033 240.456L151.514 239.993L151.021 240.442C154.99 244.784 161.516 247.296 167.501 247.304C168.378 247.304 169.245 247.249 170.092 247.137L170.098 247.136H170.1C172.137 246.837 174.021 246.017 175.426 244.785C176.829 243.557 177.756 241.88 177.753 239.958C177.754 238.704 177.361 237.37 176.52 236.028L176.516 236.021L176.512 236.016C175.772 234.891 174.454 233.652 172.893 232.646C171.329 231.649 169.532 230.888 167.784 230.881C166.501 230.873 165.217 231.337 164.289 232.442L164.284 232.449C163.585 233.285 163.254 234.23 163.258 235.163C163.261 236.312 163.725 237.405 164.401 238.415C166.448 241.43 170.494 243.928 172.37 244.845L172.373 244.846L172.38 244.849C174.885 246.011 178.652 247.163 182.224 247.167C183.802 247.167 185.348 246.939 186.726 246.354C188.101 245.773 189.308 244.816 190.13 243.413L190.129 243.417C190.726 242.416 191 241.38 190.998 240.375C190.989 238.097 189.666 236.069 188.005 234.428C186.333 232.784 184.282 231.506 182.594 230.775L182.33 231.387L182.606 230.78C181.261 230.176 178.489 229.365 175.928 229.358C174.789 229.36 173.685 229.518 172.758 230.003C171.832 230.476 171.106 231.363 170.938 232.563V232.568C170.92 232.693 170.912 232.818 170.912 232.942C170.924 234.121 171.621 235.152 172.51 235.924C173.412 236.691 174.544 237.227 175.685 237.234C176.188 237.236 176.7 237.12 177.152 236.844L176.805 236.275L177.132 236.856C177.489 236.655 177.781 236.411 177.989 236.108C178.197 235.808 178.302 235.448 178.301 235.104C178.284 234.265 177.806 233.587 177.216 232.936C175.413 231.013 172.038 229.242 171.236 228.867L170.96 229.475L171.244 228.87C167.15 226.952 162.041 225.415 157.17 225.412C155.737 225.412 154.322 225.545 152.964 225.848C152.517 225.949 151.828 226.094 151.19 226.404C150.872 226.561 150.557 226.763 150.298 227.058C150.04 227.349 149.852 227.765 149.856 228.221C149.856 228.368 149.873 228.518 149.908 228.668L150.558 228.517L149.902 228.637C149.99 229.115 150.256 229.492 150.561 229.791C151.024 230.24 151.606 230.558 152.169 230.817C152.73 231.073 153.276 231.26 153.641 231.381L153.652 231.385L153.661 231.388C154.452 231.62 158.138 232.633 160.648 232.642C161.192 232.641 161.686 232.597 162.132 232.452C162.354 232.379 162.569 232.277 162.762 232.12C162.954 231.965 163.121 231.741 163.201 231.48L162.565 231.28L163.188 231.52C163.238 231.388 163.268 231.242 163.268 231.096C163.269 230.701 163.06 230.382 162.841 230.18C162.448 229.82 161.954 229.621 161.39 229.436C160.549 229.169 159.55 228.991 158.689 228.873C157.822 228.756 157.13 228.703 156.828 228.701V229.368L156.893 228.704C156.542 228.669 155.961 228.637 155.372 228.637C154.945 228.637 154.524 228.653 154.162 228.706C153.978 228.736 153.813 228.768 153.629 228.846L153.321 229.054C153.21 229.161 153.092 229.372 153.094 229.6C153.098 229.879 153.229 230.058 153.328 230.167C153.486 230.333 153.642 230.424 153.84 230.529C154.037 230.63 154.277 230.732 154.577 230.842L154.808 230.217L154.569 230.84C156.017 231.396 157.534 231.718 158.909 232.036L159.209 230.737C157.82 230.417 156.362 230.103 155.048 229.596L155.04 229.592C154.685 229.463 154.452 229.351 154.349 229.287L154.3 229.255L154.288 229.27L154.301 229.256L154.3 229.255L154.288 229.27L154.301 229.256L153.964 229.6H154.428C154.421 229.363 154.312 229.269 154.301 229.256L153.964 229.6H154.428H153.877L154.273 229.988C154.337 229.929 154.432 229.772 154.428 229.6H153.877L154.273 229.988L154.01 229.73L154.172 230.065L154.273 229.988L154.01 229.73L154.172 230.065L154.157 230.034L154.169 230.067L154.172 230.065L154.157 230.034L154.169 230.067C154.193 230.053 154.376 230.015 154.596 229.999C154.818 229.979 155.093 229.97 155.372 229.97C155.909 229.969 156.472 230.001 156.761 230.03L156.794 230.034H156.828C156.946 230.033 157.401 230.063 157.954 230.125C158.792 230.218 159.913 230.393 160.777 230.642C161.206 230.765 161.574 230.913 161.778 231.041L161.952 231.177L161.954 231.181L162.1 231.096H161.934L161.954 231.181L162.1 231.096H161.934H162.086L161.944 231.041L161.934 231.096H162.086L161.944 231.041L161.936 231.061L161.929 231.081L161.956 231.089L161.933 231.073L161.929 231.081L161.956 231.089L161.933 231.073L161.872 231.118C161.726 231.215 161.252 231.316 160.648 231.309C158.47 231.317 154.738 230.325 154.044 230.111L153.852 230.749L154.062 230.116C153.594 229.961 152.857 229.704 152.246 229.368C151.942 229.201 151.674 229.016 151.494 228.839C151.312 228.66 151.232 228.505 151.213 228.399L151.21 228.381L151.208 228.367L151.189 228.221L151.305 227.932C151.434 227.775 151.752 227.587 152.129 227.453C152.505 227.317 152.922 227.222 153.253 227.149C154.502 226.872 155.82 226.744 157.17 226.744C161.758 226.741 166.725 228.22 170.677 230.077L170.681 230.08L170.684 230.081C171.113 230.275 172.781 231.149 174.277 232.203C175.028 232.728 175.741 233.304 176.238 233.842C176.748 234.379 176.985 234.88 176.968 235.104L176.888 235.354C176.826 235.445 176.705 235.567 176.477 235.693L176.466 235.7L176.457 235.705C176.245 235.834 175.992 235.901 175.685 235.901C174.994 235.909 174.073 235.516 173.38 234.912C172.673 234.313 172.232 233.532 172.245 232.942L172.257 232.756V232.761C172.389 231.958 172.754 231.527 173.38 231.182C174.006 230.848 174.918 230.689 175.928 230.692C178.193 230.684 180.926 231.473 182.054 231.993L182.06 231.996L182.065 231.999C183.596 232.658 185.546 233.875 187.07 235.379C188.605 236.884 189.674 238.653 189.665 240.375C189.664 241.144 189.466 241.921 188.984 242.734L188.98 242.74L188.981 242.737C188.308 243.877 187.364 244.633 186.205 245.128C185.048 245.62 183.674 245.834 182.224 245.833C178.942 245.839 175.285 244.734 172.941 243.64L172.66 244.244L172.949 243.644C171.82 243.101 169.66 241.808 167.837 240.213C166.924 239.417 166.093 238.545 165.508 237.672C164.92 236.797 164.589 235.937 164.592 235.163C164.596 234.532 164.789 233.934 165.31 233.3L164.797 232.875L165.305 233.305C165.978 232.522 166.789 232.224 167.784 232.215C169.126 232.208 170.753 232.853 172.173 233.769C173.594 234.675 174.817 235.852 175.397 236.745L175.954 236.381L175.389 236.734C176.12 237.905 176.42 238.984 176.42 239.958C176.418 241.442 175.725 242.742 174.546 243.782C173.37 244.818 171.713 245.554 169.908 245.816L170.004 246.476L169.916 245.815C169.132 245.92 168.324 245.97 167.501 245.97C161.886 245.98 155.637 243.545 152.006 239.545L152.002 239.539L151.994 239.532C150.829 238.328 150.106 236.752 150.114 235.481C150.117 234.775 150.316 234.175 150.749 233.682C151.185 233.192 151.892 232.78 153.014 232.573L152.896 231.918L152.997 232.577C153.104 232.56 153.297 232.546 153.532 232.546C154.29 232.544 155.493 232.68 156.428 232.984C156.894 233.132 157.293 233.328 157.528 233.52C157.766 233.724 157.818 233.852 157.822 233.996C157.822 234.112 157.776 234.312 157.561 234.611L158.102 235L157.569 234.6C157.236 235.058 156.529 235.456 155.694 235.737C154.862 236.022 153.933 236.206 153.181 236.367L153.321 237.018L153.19 236.365C150.566 236.889 147.938 237.205 145.193 237.416L145.174 237.417L145.154 237.42C142.857 237.736 140.497 237.84 138.084 238.388L138.232 239.037L138.137 238.377C137.75 238.433 137.056 238.543 136.369 238.761C136.024 238.872 135.678 239.009 135.362 239.199C135.049 239.389 134.746 239.636 134.553 240.015L134.533 240.056L134.517 240.101C134.449 240.308 134.412 240.513 134.412 240.716C134.408 241.104 134.561 241.484 134.826 241.734C135.09 241.988 135.438 242.111 135.78 242.109C136.454 242.116 137.124 241.628 137.376 240.842L137.382 240.825L137.386 240.806C137.46 240.537 137.488 240.264 137.488 239.993C137.486 239.334 137.328 238.682 137.149 238.077C136.968 237.475 136.76 236.916 136.638 236.508L136.634 236.493L136.629 236.48C135.862 234.292 134.789 232.257 133.845 230.157L132.629 230.704Z" fill="#F9AE47"/>
<path d="M178.236 229.789C177.496 231.896 176.657 233.928 176.061 236.1L176.058 236.109L176.056 236.12C175.864 236.965 175.404 238.312 175.397 239.549C175.397 239.805 175.418 240.06 175.472 240.311L175.474 240.322L175.477 240.336C175.572 240.696 175.732 240.997 175.958 241.221C176.182 241.445 176.484 241.589 176.802 241.588C177.126 241.592 177.445 241.432 177.644 241.182C177.846 240.932 177.941 240.611 177.941 240.272C177.941 240.094 177.916 239.911 177.866 239.72L177.857 239.685L177.845 239.653C177.558 238.965 176.95 238.636 176.406 238.405C175.852 238.18 175.298 238.069 174.99 238.013L174.884 238.593L175.049 238.027C173.136 237.473 171.281 237.369 169.497 237.056L169.476 237.052L169.453 237.049C167.312 236.839 165.264 236.525 163.221 236.003L163.074 236.575L163.23 236.005C162.638 235.844 161.921 235.663 161.285 235.382C160.645 235.104 160.118 234.734 159.841 234.256L159.333 234.554L159.846 234.265C159.673 233.957 159.62 233.724 159.62 233.552C159.624 233.325 159.697 233.161 159.878 232.968C160.146 232.681 160.684 232.418 161.269 232.258C161.853 232.096 162.482 232.024 162.909 232.025C163.085 232.025 163.228 232.039 163.293 232.052L163.408 231.473L163.274 232.048C164.117 232.248 164.641 232.63 164.993 233.132C165.342 233.634 165.516 234.291 165.516 235.037C165.521 236.382 164.933 237.984 164.017 239.194L164.013 239.2L164.009 239.206C161.158 243.217 156.305 245.611 151.977 245.604C151.342 245.604 150.721 245.553 150.117 245.451L150.018 246.032L150.126 245.452C147.369 244.933 145.061 242.609 145.065 239.513C145.065 238.496 145.312 237.381 145.89 236.196L145.361 235.936L145.886 236.205C146.349 235.293 147.306 234.122 148.413 233.22C149.517 232.306 150.777 231.682 151.756 231.693C152.476 231.706 153.054 231.956 153.602 232.756L154.093 232.429L153.598 232.751C154.013 233.393 154.184 234.039 154.185 234.717C154.2 236.381 153.056 238.285 151.618 239.877C150.193 241.47 148.505 242.761 147.63 243.297L147.94 243.8L147.638 243.293C145.818 244.38 142.972 245.472 140.454 245.467C139.341 245.467 138.3 245.258 137.417 244.779C136.534 244.297 135.792 243.552 135.252 242.384L135.25 242.381C134.865 241.552 134.7 240.736 134.7 239.93C134.696 238.12 135.558 236.332 136.758 234.825C137.952 233.322 139.474 232.109 140.657 231.458L140.664 231.455L140.668 231.452C141.528 230.942 143.66 230.16 145.382 230.17C146.152 230.169 146.824 230.32 147.29 230.637C147.752 230.957 148.074 231.417 148.185 232.287V232.282L148.197 232.499C148.202 233.181 147.829 233.979 147.281 234.576C146.738 235.182 146.03 235.546 145.572 235.534C145.366 235.532 145.212 235.482 145.058 235.365L145.049 235.357L145.04 235.352C144.709 235.099 144.648 234.925 144.637 234.66C144.629 234.339 144.836 233.832 145.233 233.292C146.408 231.652 149.068 229.818 149.566 229.54L149.573 229.534C152.653 227.684 156.521 226.218 160.062 226.222C161.105 226.222 162.118 226.348 163.08 226.622C163.422 226.717 163.877 226.854 164.2 227.058C164.361 227.158 164.482 227.27 164.558 227.381C164.633 227.496 164.673 227.604 164.674 227.776L164.657 227.969L164.654 227.979L164.653 227.991C164.62 228.306 164.305 228.696 163.828 229.025C163.36 229.353 162.793 229.608 162.428 229.763L162.66 230.305L162.448 229.753C162.181 229.857 161.317 230.161 160.314 230.432C159.314 230.705 158.154 230.944 157.341 230.941C156.994 230.942 156.716 230.894 156.57 230.832C156.421 230.757 156.432 230.745 156.413 230.696L156.409 230.681L156.405 230.665L156.401 230.652L156.402 230.649C156.397 230.622 156.574 230.427 156.922 230.269C157.432 230.021 158.22 229.818 158.908 229.694C159.588 229.568 160.217 229.511 160.33 229.513H160.369L160.405 229.508C160.621 229.48 161.058 229.448 161.469 229.449C161.765 229.448 162.058 229.467 162.226 229.5L162.321 229.522L162.34 229.529L162.464 229.27L162.252 229.457L162.34 229.529L162.464 229.27L162.252 229.457L162.594 229.156H162.14C162.137 229.277 162.198 229.404 162.252 229.457L162.594 229.156H162.14H162.524L162.206 228.927C162.19 228.948 162.141 229.025 162.14 229.156H162.524L162.206 228.927L162.293 228.989L162.214 228.916L162.206 228.927L162.293 228.989L162.214 228.916C162.209 228.93 162.016 229.076 161.658 229.24L161.656 229.241L161.65 229.244C160.636 229.744 159.506 230.056 158.417 230.376L158.75 231.508C159.824 231.191 161.022 230.865 162.17 230.303L161.91 229.773L162.162 230.306C162.481 230.155 162.716 230.022 162.904 229.877L163.164 229.616C163.24 229.509 163.318 229.356 163.32 229.156C163.321 228.992 163.254 228.824 163.169 228.717C163.017 228.529 162.865 228.469 162.734 228.418C162.345 228.285 161.922 228.275 161.469 228.269C160.998 228.269 160.541 228.303 160.256 228.339L160.33 228.922V228.333C160.126 228.334 159.78 228.368 159.306 228.434C158.605 228.536 157.685 228.713 156.892 229.004C156.493 229.152 156.125 229.324 155.816 229.567C155.514 229.801 155.224 230.165 155.222 230.652L155.276 231.006L155.84 230.836L155.266 230.976C155.372 231.437 155.74 231.772 156.113 231.918C156.492 232.075 156.901 232.118 157.341 232.122C158.36 232.118 159.569 231.854 160.624 231.57C161.677 231.285 162.556 230.976 162.87 230.856L162.881 230.851L162.89 230.846C163.274 230.682 163.912 230.405 164.505 229.991C165.088 229.576 165.688 229.008 165.821 228.156L165.237 228.073L165.817 228.177C165.842 228.041 165.854 227.908 165.854 227.776C165.857 227.375 165.73 227.005 165.534 226.72C165.237 226.287 164.821 226.029 164.434 225.848C164.045 225.668 163.664 225.561 163.402 225.487C162.321 225.18 161.198 225.044 160.062 225.044C156.201 225.048 152.182 226.599 148.966 228.524L149.27 229.029L148.974 228.52C148.542 228.772 147.236 229.649 145.98 230.773C145.354 231.334 144.748 231.953 144.278 232.599C143.816 233.244 143.465 233.918 143.457 234.66C143.445 235.277 143.768 235.905 144.352 236.309L144.696 235.83L144.333 236.294C144.698 236.584 145.144 236.716 145.572 236.713C146.546 236.701 147.445 236.136 148.153 235.37C148.852 234.597 149.37 233.582 149.376 232.499L149.357 232.152V232.148C149.232 231.015 148.701 230.156 147.948 229.658C147.198 229.157 146.294 228.992 145.382 228.991C143.328 229.001 141.15 229.817 140.076 230.432L140.372 230.942L140.086 230.427C138.75 231.167 137.142 232.449 135.834 234.092C134.533 235.73 133.522 237.741 133.52 239.93C133.52 240.899 133.722 241.896 134.182 242.88L134.181 242.877C134.812 244.253 135.753 245.22 136.854 245.816C137.954 246.412 139.197 246.645 140.454 246.645C143.301 246.639 146.264 245.476 148.241 244.306L148.245 244.304L148.248 244.303C149.24 243.689 150.97 242.364 152.496 240.665C154.01 238.965 155.352 236.903 155.365 234.717C155.366 233.833 155.128 232.937 154.588 232.109L154.586 232.106L154.585 232.104C153.878 231.015 152.817 230.501 151.756 230.515C150.316 230.525 148.896 231.308 147.665 232.306C146.437 233.316 145.406 234.56 144.836 235.668L144.834 235.672L144.832 235.677C144.181 237.006 143.885 238.303 143.885 239.513C143.888 243.23 146.653 246.009 149.91 246.611L149.916 246.612L149.92 246.613C150.592 246.727 151.28 246.782 151.977 246.782C156.728 246.776 161.872 244.222 164.969 239.892L164.489 239.549L164.96 239.904C166.016 238.493 166.69 236.71 166.696 235.037C166.696 234.112 166.481 233.21 165.962 232.46C165.446 231.71 164.621 231.146 163.541 230.899L163.532 230.897L163.522 230.894C163.337 230.858 163.138 230.846 162.909 230.845C162.181 230.849 161.168 230.988 160.258 231.358C159.805 231.546 159.374 231.793 159.029 232.149C158.685 232.499 158.437 232.992 158.44 233.552C158.441 233.972 158.572 234.406 158.818 234.845L158.822 234.851L158.824 234.853C159.296 235.651 160.057 236.13 160.81 236.464C161.568 236.794 162.346 236.985 162.92 237.142L162.922 237.144L162.929 237.145C165.045 237.687 167.154 238.009 169.337 238.224L169.396 237.637L169.294 238.217C171.169 238.541 172.973 238.649 174.72 239.16L174.748 239.168L174.778 239.173C175.052 239.222 175.538 239.325 175.961 239.497C176.393 239.665 176.7 239.922 176.746 240.082L177.296 239.868L176.725 240.017L176.761 240.272C176.761 240.399 176.729 240.436 176.729 240.437L176.802 240.497V240.409L176.729 240.437L176.802 240.497V240.409V240.458L176.824 240.412L176.802 240.409V240.458L176.824 240.412C176.821 240.412 176.697 240.34 176.618 240.039L176.048 240.187L176.625 240.064C176.593 239.916 176.577 239.741 176.577 239.549C176.572 238.603 176.984 237.309 177.205 236.391L176.63 236.256L177.2 236.411C177.768 234.332 178.593 232.325 179.349 230.181L178.236 229.791" fill="#F9AE47"/>
<path d="M124.609 232.306C125.666 233.258 126.854 234.368 128.184 235.282C129.513 236.196 130.998 236.925 132.658 237.045L132.66 237.046C132.82 237.057 132.978 237.063 133.134 237.063C134.738 237.061 136.178 236.508 137.477 235.788C138.777 235.065 139.956 234.17 141.05 233.425C144.017 231.409 146.916 229.564 150.252 228.961L150.133 228.305L150.236 228.964C151.037 228.839 151.848 228.781 152.664 228.78C155.153 228.78 157.69 229.322 160.129 230.108L160.141 230.112L160.154 230.116C162.78 230.849 165.472 231.824 168.442 232.156H168.453L168.461 232.157C168.908 232.194 169.35 232.21 169.792 232.21C171.997 232.206 174.133 231.839 176.273 231.841H176.292L176.31 231.84C176.93 231.805 177.554 231.788 178.178 231.788C181.332 231.788 184.524 232.221 187.566 233.091L187.584 233.094L187.6 233.099C188.156 233.227 189.521 233.588 190.694 234.118C191.281 234.382 191.818 234.693 192.168 235.001C192.342 235.153 192.469 235.304 192.544 235.43C192.618 235.561 192.642 235.66 192.644 235.757C192.642 235.892 192.596 236.079 192.346 236.368L192.334 236.382L192.326 236.394C191.89 236.963 190.988 237.448 189.962 237.796C188.938 238.151 187.82 238.387 186.95 238.604L186.954 238.603C183.058 239.551 179.048 240.184 175.138 240.606H175.136C167.8 241.44 160.34 242.011 152.965 242.011C150.961 242.011 148.962 241.968 146.976 241.879L146.961 241.877H146.945C146.394 241.877 145.768 241.892 145.108 241.892C143.297 241.903 141.229 241.748 140.066 241.018L140.062 241.016C139.898 240.918 139.812 240.837 139.789 240.806L139.786 240.808L139.59 240.887H139.8L139.786 240.808L139.59 240.887H139.8H139.589L139.792 240.946L139.8 240.887H139.589L139.792 240.946L139.709 240.922L139.785 240.964L139.792 240.946L139.709 240.922L139.785 240.964C139.785 240.96 139.844 240.881 139.965 240.789C140.086 240.694 140.261 240.585 140.468 240.47L140.144 239.888L140.448 240.481C144.398 238.445 149.961 238.103 154.414 237.897H154.42C155.029 237.863 155.629 237.845 156.221 237.845C159.28 237.846 162.132 238.305 164.994 239.345L165.222 238.718L164.974 239.337C168.108 240.592 171.114 241.04 174.289 241.039C174.988 241.039 175.696 241.017 176.416 240.979H176.42H176.421C183.277 240.549 190.218 239.267 196.936 237.667L196.782 237.018L196.913 237.672C197.154 237.624 198.429 237.406 199.649 237.108C200.264 236.957 200.868 236.788 201.362 236.592C201.61 236.492 201.83 236.389 202.033 236.252L202.325 235.991C202.417 235.881 202.512 235.727 202.542 235.518L202.549 235.472V235.425C202.553 235.224 202.457 235.024 202.354 234.913C202.169 234.716 202.013 234.672 201.874 234.624C201.468 234.506 201.01 234.496 200.456 234.491C199.79 234.491 199.033 234.532 198.408 234.572C198.094 234.593 197.814 234.613 197.598 234.628C197.389 234.642 197.22 234.652 197.206 234.652H197.181L197.157 234.653C185.657 235.505 174.181 236.993 162.729 237.841L162.778 238.506L162.741 237.84C158.214 238.088 153.762 238.333 149.289 238.333C147.988 238.333 146.684 238.312 145.376 238.265L145.35 238.932L145.384 238.265C144.282 238.212 142.608 238.237 141.01 238.069C140.214 237.985 139.442 237.853 138.794 237.652C138.145 237.452 137.63 237.179 137.321 236.865L136.85 237.337L137.33 236.875C137.102 236.634 137.077 236.5 137.076 236.42C137.074 236.336 137.116 236.194 137.314 235.981C137.654 235.609 138.418 235.16 139.364 234.775C142.216 233.591 146.652 232.799 147.373 232.681L147.264 232.024L147.334 232.687C148.532 232.558 149.757 232.482 150.982 232.482C155.757 232.484 160.469 233.627 163.666 237.148L164.16 236.7L163.661 237.142C164.412 237.979 165.068 239.361 165.653 240.816C166.245 242.272 166.776 243.793 167.394 244.979L168.576 244.36C168.025 243.315 167.493 241.806 166.889 240.315C166.28 238.82 165.608 237.333 164.657 236.257L164.656 236.256L164.653 236.251C161.088 232.336 155.946 231.149 150.982 231.149C149.702 231.149 148.43 231.229 147.193 231.361L147.173 231.364L147.154 231.367C146.566 231.465 143.838 231.942 141.218 232.721C139.906 233.112 138.625 233.573 137.621 234.127C137.12 234.406 136.684 234.706 136.342 235.068C136.005 235.425 135.742 235.881 135.742 236.42C135.741 236.93 135.988 237.408 136.37 237.8L136.376 237.806L136.378 237.809C136.92 238.346 137.628 238.684 138.398 238.925C139.558 239.284 140.889 239.424 142.138 239.494C143.385 239.563 144.552 239.558 145.317 239.597H145.321H145.326C146.653 239.645 147.973 239.667 149.289 239.667C153.812 239.667 158.288 239.418 162.814 239.172H162.822L162.828 239.17C174.328 238.318 185.804 236.83 197.256 235.982L197.206 235.318V235.985C197.325 235.984 197.468 235.973 197.692 235.958C198.344 235.913 199.536 235.824 200.456 235.824C200.836 235.822 201.172 235.841 201.362 235.872L201.468 235.894L201.489 235.9L201.625 235.569L201.377 235.82L201.489 235.9L201.625 235.569L201.377 235.82L201.769 235.424L201.216 235.425C201.212 235.596 201.309 235.76 201.377 235.82L201.769 235.424L201.216 235.425H201.882L201.222 235.33L201.597 235.384L201.301 235.137L201.222 235.33L201.597 235.384L201.301 235.137L201.352 235.179L201.308 235.129L201.301 235.137L201.352 235.179L201.308 235.129C201.278 235.17 200.937 235.348 200.51 235.482C199.862 235.699 198.982 235.905 198.23 236.06C197.472 236.217 196.854 236.324 196.65 236.365L196.638 236.367L196.628 236.369C189.956 237.958 183.084 239.225 176.338 239.646H176.344C175.644 239.684 174.961 239.705 174.289 239.705C171.236 239.704 168.432 239.284 165.469 238.1L165.458 238.096L165.45 238.092C162.437 236.996 159.413 236.512 156.221 236.512C155.604 236.512 154.978 236.53 154.346 236.565H154.352C149.88 236.785 144.178 237.08 139.84 239.294L139.83 239.3L139.821 239.305C139.505 239.481 139.217 239.66 138.968 239.888C138.844 240.003 138.728 240.13 138.633 240.294C138.538 240.456 138.466 240.661 138.466 240.887C138.465 241.175 138.589 241.448 138.754 241.648C138.921 241.851 139.126 242.009 139.376 242.16L139.372 242.157C141.014 243.141 143.237 243.215 145.108 243.225C145.786 243.225 146.418 243.211 146.945 243.211V242.544L146.914 243.211C148.924 243.301 150.942 243.344 152.965 243.344C160.408 243.344 167.917 242.769 175.286 241.932H175.282C179.236 241.504 183.302 240.863 187.269 239.897H187.273C188.104 239.688 189.27 239.446 190.398 239.056C191.524 238.661 192.641 238.137 193.374 237.217L192.85 236.806L193.353 237.244C193.748 236.794 193.978 236.281 193.977 235.757C193.972 235.013 193.545 234.433 193.045 233.997C192.281 233.336 191.236 232.865 190.254 232.501C189.273 232.142 188.361 231.906 187.9 231.8L187.749 232.449L187.933 231.808C184.766 230.904 181.454 230.455 178.178 230.455C177.529 230.455 176.881 230.472 176.236 230.508L176.273 231.175V230.508C173.985 230.511 171.842 230.879 169.792 230.876C169.381 230.876 168.976 230.863 168.572 230.828L168.516 231.493L168.59 230.83C165.822 230.525 163.202 229.587 160.513 228.832L160.334 229.475L160.538 228.84C158.013 228.025 155.346 227.448 152.664 227.448C151.785 227.446 150.905 227.509 150.03 227.646L150.024 227.648L150.013 227.649C146.337 228.322 143.284 230.301 140.301 232.322C139.168 233.097 138.02 233.963 136.83 234.622C135.638 235.282 134.422 235.729 133.134 235.729C133.008 235.729 132.88 235.725 132.752 235.716H132.753C131.437 235.624 130.161 235.025 128.94 234.184C127.718 233.346 126.569 232.279 125.501 231.316L124.609 232.308" fill="#F78F50"/>
<path d="M161.762 219.955C161.762 219.955 150.429 220.399 144.874 225.288C139.318 230.177 131.096 227.955 130.874 231.955C130.652 235.955 141.985 229.065 144.208 231.955C146.429 234.844 144.208 243.955 153.318 240.177C162.429 236.399 162.429 232.177 165.541 235.732C168.652 239.288 178.874 240.399 179.318 234.844C179.762 229.288 187.318 236.399 186.429 231.732C185.541 227.065 167.985 219.732 161.762 219.955Z" fill="#F2515A"/>
<path d="M143.296 234.952C143.296 234.952 144.686 230.52 138.682 233.797C132.678 237.075 141.437 242.384 143.296 234.952Z" fill="#F2515A"/>
<path d="M166.208 244.622C166.208 244.622 160.852 236.684 163.196 236.208C165.541 235.732 165.985 238.622 171.096 239.732C176.208 240.844 172.429 247.732 166.208 244.622Z" fill="#F2515A"/>
<path d="M187.112 239.251C186.12 239.255 176.665 235.46 182.208 233.955C187.749 232.449 195.128 239.212 187.112 239.251Z" fill="#F2515A"/>
<path d="M152.309 224.061C151.472 224.293 150.681 224.077 150.544 223.58C150.405 223.081 150.972 222.489 151.81 222.259C152.648 222.027 153.438 222.241 153.576 222.74C153.714 223.237 153.148 223.829 152.309 224.061ZM151.51 221.175C149.668 221.685 148.42 222.988 148.722 224.083C149.026 225.179 150.766 225.653 152.609 225.142C154.452 224.633 155.7 223.33 155.396 222.235C155.093 221.14 153.353 220.665 151.51 221.175Z" fill="#4F3846"/>
<path d="M172.213 228.387C171.486 227.911 171.126 227.173 171.41 226.741C171.693 226.309 172.512 226.345 173.238 226.822C173.966 227.299 174.325 228.035 174.041 228.467C173.758 228.9 172.94 228.863 172.213 228.387ZM173.856 225.883C172.256 224.833 170.454 224.755 169.832 225.705C169.208 226.656 169.998 228.276 171.597 229.325C173.196 230.373 174.998 230.453 175.621 229.503C176.245 228.552 175.454 226.93 173.856 225.883Z" fill="#4F3846"/>
<path d="M162.052 226.388C161.213 226.62 160.422 226.404 160.285 225.905C160.146 225.408 160.714 224.816 161.552 224.584C162.389 224.352 163.18 224.568 163.318 225.065C163.456 225.564 162.889 226.156 162.052 226.388ZM161.252 223.501C159.409 224.012 158.161 225.313 158.465 226.409C158.768 227.505 160.508 227.979 162.35 227.469C164.193 226.958 165.441 225.657 165.138 224.561C164.834 223.465 163.094 222.991 161.252 223.501Z" fill="#4F3846"/>
<path d="M149.632 232.861C148.945 232.64 148.496 232.129 148.628 231.722C148.758 231.315 149.421 231.163 150.108 231.384C150.793 231.605 151.244 232.115 151.112 232.522C150.98 232.93 150.317 233.081 149.632 232.861ZM150.393 230.497C148.884 230.011 147.426 230.344 147.137 231.241C146.848 232.139 147.837 233.26 149.346 233.746C150.856 234.233 152.313 233.9 152.602 233.003C152.892 232.105 151.902 230.982 150.393 230.497Z" fill="#4F3846"/>
<path d="M162.48 231.468C161.725 231.445 161.124 231.061 161.138 230.612C161.152 230.163 161.776 229.817 162.532 229.841C163.288 229.865 163.888 230.249 163.874 230.699C163.86 231.148 163.236 231.492 162.48 231.468ZM162.562 228.865C160.9 228.812 159.528 229.57 159.496 230.56C159.465 231.548 160.788 232.392 162.449 232.444C164.112 232.496 165.484 231.737 165.516 230.749C165.546 229.761 164.225 228.917 162.562 228.865Z" fill="#4F3846"/>
<path d="M169.409 223.305C168.724 223.084 168.273 222.575 168.405 222.167C168.537 221.758 169.2 221.606 169.885 221.828C170.572 222.049 171.021 222.558 170.889 222.967C170.758 223.375 170.096 223.527 169.409 223.305ZM170.172 220.941C168.661 220.455 167.204 220.788 166.914 221.685C166.625 222.582 167.614 223.705 169.124 224.191C170.633 224.677 172.092 224.344 172.38 223.446C172.669 222.549 171.68 221.428 170.172 220.941Z" fill="#4F3846"/>
<path d="M116.073 258.451C116.073 261.293 107.912 263.597 97.8449 263.597C87.7782 263.597 79.6182 261.293 79.6182 258.451C79.6182 255.608 87.7782 253.304 97.8449 253.304C107.912 253.304 116.073 255.608 116.073 258.451Z" fill="#4F3846"/>
<path d="M79.8238 192.594C79.1584 195.264 78.7944 198.148 78.7944 201.16C78.7944 214.794 86.2384 225.848 95.4211 225.848C104.602 225.848 112.046 214.794 112.046 201.16C112.046 198.148 111.682 195.264 111.017 192.594H79.8238Z" fill="#A4E1EF"/>
<path d="M95.5156 222.446C88.4583 222.446 82.7063 215.417 82.4236 206.612C85.5023 206.997 88.6023 207.127 91.7129 207.127C93.1743 207.127 94.6383 207.097 96.1023 207.053C100.272 206.928 104.436 206.856 108.601 206.813C108.238 215.524 102.518 222.446 95.5156 222.446Z" fill="#F68691"/>
<path d="M79.9609 192.543C79.9609 194.137 86.8823 195.43 95.4209 195.43C103.958 195.43 110.88 194.137 110.88 192.543C110.88 190.946 103.958 189.653 95.4209 189.653C86.8823 189.653 79.9609 190.946 79.9609 192.543Z" fill="#8DD9DA"/>
<path d="M81.449 257.367C81.449 259.525 87.6916 261.276 95.3943 261.276C103.096 261.276 109.34 259.525 109.34 257.367C109.34 255.206 103.096 253.456 95.3943 253.456C87.6916 253.456 81.449 255.206 81.449 257.367Z" fill="#A4E1EF"/>
<path d="M97.0264 258.533H93.8145V223.959H97.0264V258.533Z" fill="#A4E1EF"/>
</svg>
